<?xml version="1.0" standalone="no"?>
<!DOCTYPE svg PUBLIC "-//W3C//DTD SVG 1.1//EN" "http://www.w3.org/Graphics/SVG/1.1/DTD/svg11.dtd" >
<!--
2013-9-30: Created.
-->
<svg>
<metadata>
Created by iconfont
</metadata>
<defs>

<font id="iconfont" horiz-adv-x="1024" >
  <font-face
    font-family="iconfont"
    font-weight="500"
    font-stretch="normal"
    units-per-em="1024"
    ascent="896"
    descent="-128"
  />
    <missing-glyph />
    
    <glyph glyph-name="x" unicode="x" horiz-adv-x="1001"
d="M281 543q-27 -1 -53 -1h-83q-18 0 -36.5 -6t-32.5 -18.5t-23 -32t-9 -45.5v-76h912v41q0 16 -0.5 30t-0.5 18q0 13 -5 29t-17 29.5t-31.5 22.5t-49.5 9h-133v-97h-438v97zM955 310v-52q0 -23 0.5 -52t0.5 -58t-10.5 -47.5t-26 -30t-33 -16t-31.5 -4.5q-14 -1 -29.5 -0.5
t-29.5 0.5h-32l-45 128h-439l-44 -128h-29h-34q-20 0 -45 1q-25 0 -41 9.5t-25.5 23t-13.5 29.5t-4 30v167h911zM163 247q-12 0 -21 -8.5t-9 -21.5t9 -21.5t21 -8.5q13 0 22 8.5t9 21.5t-9 21.5t-22 8.5zM316 123q-8 -26 -14 -48q-5 -19 -10.5 -37t-7.5 -25t-3 -15t1 -14.5
t9.5 -10.5t21.5 -4h37h67h81h80h64h36q23 0 34 12t2 38q-5 13 -9.5 30.5t-9.5 34.5q-5 19 -11 39h-368zM336 498v228q0 11 2.5 23t10 21.5t20.5 15.5t34 6h188q31 0 51.5 -14.5t20.5 -52.5v-227h-327z" />
    

    
    <glyph glyph-name="753bianjiqi_charuiframe" unicode="&#58962;" d="M64 768v-768h960V768H64z m448-64v-128H128V704h384zM128 320V512h384v-192H128z m0-64h256v-192H128V256z m832-192H448V256h512v-192z m0 256H576V704h384v-384z"  horiz-adv-x="1024" />

    
    <glyph glyph-name="750bianjiqi_fujian" unicode="&#58963;" d="M867.203 268.824c13.6 13.703 13.578 35.832-0.088 49.496-13.663 13.663-35.793 13.687-49.494 0.086l-0.434 0.432L553.45 55.1c-82.15-65.542-202.545-60.341-278.576 15.686-76.03 76.032-81.238 196.435-15.696 278.588l384.151 394.236c51.629 33.346 121.425 27.451 166.606-17.73 45.175-45.177 51.068-114.969 17.72-166.597L484.156 214.886c-1.808-2.838-3.921-5.537-6.397-8.013-18.323-18.324-48.14-18.327-66.467 0-18.326 18.326-18.328 48.144-0.003 66.47 2.476 2.476 5.177 4.588 8.014 6.396L689.78 552.48a34.938 34.938 0 0 1 3.132 2.75c13.695 13.695 13.695 35.897 0 49.59-13.691 13.693-35.894 13.693-49.589 0-0.401-0.403-0.752-0.836-1.133-1.253l-0.061 0.06L368.773 330.27c-2.579-2.173-5.104-4.445-7.535-6.873-45.923-45.923-45.923-120.648 0.002-166.574 45.924-45.923 120.648-45.923 166.572 0 2.43 2.428 4.701 4.956 6.873 7.537L878.43 508.51c60.521 79.93 54.404 194.573-18.443 267.422-72.857 72.855-187.504 78.973-267.434 18.453L208.874 399.68c-93.012-109.984-87.705-275.29 15.948-378.945 102.603-102.601 265.612-108.82 375.577-18.71l0.275-0.31 266.818 266.817-0.29 0.29z"  horiz-adv-x="1024" />

    
    <glyph glyph-name="752bianjiqi_gugeditu" unicode="&#58964;" d="M692.01 350.805c0-39.808 13.313-68.565 39.553-85.461 21.461-13.824 46.421-15.915 59.349-15.915 3.157 0 5.675 0.128 7.424 0.256 0 0-4.096-26.752 15.744-53.248h-0.896c-34.39 0-146.517-7.168-146.517-99.37 0-93.782 102.997-98.56 123.648-98.56 1.621 0 2.56 0.042 2.56 0.042 0.213 0 1.706-0.042 4.224-0.042 13.269 0 47.53 1.664 79.36 17.152 41.301 20.053 62.208 54.912 62.208 103.594 0 47.062-31.915 75.094-55.211 95.531-14.208 12.459-26.496 23.253-26.496 33.707 0 10.666 8.96 18.688 20.31 28.842 18.389 16.427 35.669 39.808 35.669 84.011 0 38.87-5.035 64.939-36.096 81.493 3.242 1.664 14.677 2.859 20.352 3.627 16.81 2.304 41.429 4.907 41.429 18.645v2.646H816c-1.195 0.042-123.99-4.523-123.99-116.95z m197.974-240.341c2.347-37.504-29.739-65.195-77.91-68.693-48.938-3.584-89.215 18.432-91.562 55.893-1.152 18.005 6.784 35.627 22.272 49.707 15.701 14.25 37.29 22.997 60.757 24.746 2.774 0.171 5.504 0.299 8.278 0.299 45.269 0 75.946-26.624 78.165-61.952z m-32.043 265.984c12.032-42.325-6.144-86.57-35.072-94.72a37.77 37.77 0 0 0-10.24-1.408c-26.538 0-52.821 26.837-62.549 63.787-5.419 20.778-4.992 38.912 1.237 56.362 6.144 17.152 17.152 28.758 31.019 32.683a37.77 37.77 0 0 0 10.24 1.408c32.043 0 52.65-13.27 65.365-58.112z m-393.429-218.88c4.181-9.173 10.624-16.384 19.37-21.675 8.747-5.29 18.134-7.936 28.118-7.936 9.984 0 19.37 2.646 28.117 7.936 8.747 5.291 15.36 12.502 19.798 21.675l81.578 173.483c-0.597 6.314-1.109 12.757-1.109 19.712 0 67.328 32.597 111.488 73.813 137.685 6.998 18.176 11.136 39.723 11.136 66.176 0 58.88-20.821 109.184-62.506 150.827C621.184 747.179 570.88 768 512 768c-58.88 0-109.184-20.821-150.827-62.507-41.685-41.642-62.506-91.946-62.506-150.826 0-30.294 4.565-55.168 13.738-74.582l152.107-322.517z m-27.947 472.533c20.822 20.822 45.952 31.232 75.435 31.232 29.44 0 54.57-10.41 75.435-31.232 20.821-20.821 31.232-45.952 31.232-75.392 0-29.44-10.411-54.57-31.232-75.434-20.822-20.822-45.995-31.232-75.435-31.232-29.44 0-54.57 10.41-75.435 31.232-20.821 20.821-31.232 45.952-31.232 75.434 0 29.398 10.411 54.528 31.232 75.392z m196.736-416.768L653.355 256h14.378a131.712 131.712 0 0 1 31.318-31.019c-7.339-3.498-14.123-7.424-20.608-11.648H633.3zM651.776 0H85.333L256 256h114.901l20.139-42.667H278.827L165.035 42.667h460.458c6.358-16.342 15.019-30.678 26.283-42.667z"  horiz-adv-x="1024" />

    
    <glyph glyph-name="758bianjiqi_fengexian" unicode="&#58965;" d="M0.568 407.014h1022.864v-85.24H0.568v85.24z"  horiz-adv-x="1024" />

    
    <glyph glyph-name="751bianjiqi_baiduditu" unicode="&#58966;" d="M606.293 201.856c46.379 9.984 40.064 65.408 38.699 77.525-2.261 18.688-24.235 51.328-54.101 48.768-37.547-3.37-43.008-57.6-43.008-57.6-5.12-25.088 12.117-78.677 58.41-68.693z m49.238-96.427c-1.366-3.882-4.395-13.866-1.75-22.528 5.163-19.498 22.102-20.352 22.102-20.352h24.277v59.392h-26.027c-11.69-3.541-17.322-12.629-18.602-16.512z m36.864 189.398c25.642 0 46.336 29.482 46.336 65.962 0 36.438-20.694 65.92-46.336 65.92-25.558 0-46.336-29.482-46.336-65.92-0.043-36.48 20.736-65.962 46.336-65.962z m110.336-4.352c34.261-4.438 56.277 32.085 60.629 59.818 4.48 27.648-17.621 59.819-41.856 65.323-24.277 5.59-54.613-33.323-57.387-58.71-3.328-31.06 4.438-62.037 38.614-66.431z m83.925-162.859s-52.992 41.003-83.925 85.29c-41.942 65.323-101.504 38.742-121.43 5.505-19.84-33.238-50.773-54.23-55.125-59.819-4.437-5.461-64-37.632-50.773-96.341 13.226-58.667 59.648-57.558 59.648-57.558s34.218-3.37 73.898 5.504c39.723 8.79 73.899-2.218 73.899-2.218s92.757-31.062 118.144 28.757c25.344 59.861-14.336 90.88-14.336 90.88z m-158.72-89.003h-60.288c-26.027 5.206-36.395 22.955-37.717 25.984-1.28 3.072-8.662 17.366-4.779 41.643 11.264 36.437 43.35 39.04 43.35 39.04h32.085v39.467l27.349-0.427v-145.707z m112.299 0.427h-69.376c-26.88 6.912-28.16 26.027-28.16 26.027v76.757l28.16 0.47V73.3c1.706-7.338 10.837-8.704 10.837-8.704h28.587v77.184h29.952V39.04z m98.261 204.885c0 13.27-11.008 53.163-51.84 53.163-40.875 0-46.379-37.675-46.379-64.299 0-25.386 2.134-60.885 52.95-59.733 50.816 1.11 45.269 57.557 45.269 70.87z m-473.984-86.357c4.181-9.173 10.624-16.384 19.37-21.675 8.747-5.29 18.134-7.936 28.118-7.936 9.984 0 19.37 2.646 28.117 7.936 8.747 5.291 15.36 12.502 19.798 21.675l3.328 7.083c-12.886 5.333-24.619 13.61-34.091 25.173-22.101 27.05-27.733 62.635-23.552 86.912 3.968 33.408 25.216 88.832 81.621 93.91a77.411 77.411 0 0 0 6.998 0.298c3.242 0 6.4-0.17 9.514-0.555 3.883 56.192 41.43 98.944 88.704 98.944 4.608 0 8.96-0.938 13.312-1.706l5.888 12.458c9.174 19.456 13.739 44.288 13.739 74.582 0 58.88-20.821 109.184-62.507 150.826C621.184 747.18 570.88 768 512 768c-58.88 0-109.184-20.821-150.827-62.507-41.685-41.642-62.506-91.946-62.506-150.826 0-30.294 4.565-55.168 13.738-74.582l152.107-322.517z m-27.947 472.533c20.822 20.822 45.952 31.232 75.435 31.232 29.44 0 54.57-10.41 75.435-31.232 20.821-20.821 31.232-45.952 31.232-75.392 0-29.44-10.411-54.57-31.232-75.434-20.822-20.822-45.995-31.232-75.435-31.232-29.44 0-54.57 10.41-75.435 31.232-20.821 20.821-31.232 45.952-31.232 75.434 0 29.398 10.411 54.528 31.232 75.392zM558.976 0H85.333L256 256h114.901l20.139-42.667H278.827L165.035 42.667H536.96c5.333-17.536 12.928-31.616 22.016-42.667z"  horiz-adv-x="1024" />

    
    <glyph glyph-name="757bianjiqi_beijing" unicode="&#58967;" d="M948.263 856.615H75.737c-20.008 0-36.352-16.305-36.352-36.352v-872.526c0-20.008 16.344-36.352 36.352-36.352h872.526c20.008 0 36.352 16.344 36.352 36.352V820.263c0 20.047-16.344 36.352-36.352 36.352zM112.128-15.872v93.657l93.657-93.657h-93.657z m175.892 0L112.128 159.98v91.373l267.225-267.225H288.02z m173.568 0l-349.46 349.46V414.64l430.474-430.513h-81.014z m163.249 0L112.128 496.916v70.498L695.493-15.91h-70.656z m152.812 0L112.128 649.649v81.014l746.496-746.535h-80.975z m134.223 28.948L141.076 783.91h87.237l683.559-683.559v-87.276z m0 169.472L310.548 783.91h83.022L911.872 265.61v-83.062z m0 165.336L475.884 783.911h80.936L911.91 428.82v-80.936z m0 163.131L639.055 783.911h87.158l185.659-185.659v-87.237z m0 169.433L808.448 783.872h103.424v-103.424z"  horiz-adv-x="1024" />

    
    <glyph glyph-name="756bianjiqi_moban" unicode="&#58968;" d="M419.05-35.123H218.556c-83.665 0-151.725 59.52-151.725 132.688V605.273c0 73.16 68.06 132.68 151.725 132.68H419.05c83.666 0 151.725-59.52 151.725-132.68v-507.708c0-73.168-68.06-132.688-151.725-132.688zM218.556 651.253c-35.243 0-65.025-21.06-65.025-45.98v-507.708c0-24.927 29.782-45.987 65.025-45.987H419.05c35.244 0 65.025 21.06 65.025 45.987V605.273c0 24.926-29.781 45.98-65.025 45.98H218.556zM915.77 660.768a46.543 46.543 0 0 0-46.537-46.543H657.05a46.529 46.529 0 0 0-46.536 46.543 46.543 46.543 0 0 0 46.536 46.544h212.177a46.543 46.543 0 0 0 46.543-46.544z m0-172.966a46.543 46.543 0 0 0-46.537-46.544H657.05a46.529 46.529 0 0 0-46.536 46.544 46.543 46.543 0 0 0 46.536 46.543h212.177a46.543 46.543 0 0 0 46.543-46.543z m0-172.96a46.529 46.529 0 0 0-46.537-46.543H657.05a46.536 46.536 0 1 0 0 93.08h212.177a46.529 46.529 0 0 0 46.543-46.537zM874.825-27.898H665.062c-29.08 0-52.743 23.655-52.743 52.743V157.763c0 29.081 23.655 52.743 52.743 52.743h209.763c29.081 0 52.743-23.655 52.743-52.743v-132.918c0-29.088-23.662-52.743-52.743-52.743z m-190.256 72.25h170.749v93.904H684.569v-93.903z"  horiz-adv-x="1024" />

    
    <glyph glyph-name="755bianjiqi_fenye" unicode="&#58969;" d="M132.98 386.747h94.916v-47.458h-94.917v47.458z m142.375 0H417.73v-47.458H275.355v47.458z m189.834 0h94.916v-47.458H465.19v47.458z m142.376 0H749.94v-47.458H607.565v47.458z m189.833 0h94.916v-47.458h-94.916v47.458z m-0.579 379.458l0.579-331.999H227.896l-0.888 331.999 48.266 0.17 0.08-284.71H749.94l-0.193 284.54h47.073z m-569.725-758.61l0.802 284.237 568.923 0.071v-284.82h-47.243l0.363 237.289H275.355l0.09-236.778h-48.351z"  horiz-adv-x="1024" />

    
    <glyph glyph-name="760bianjiqi_shijian" unicode="&#58970;" d="M517.333 853.333c-122.517 0-237.696-47.722-324.309-134.357-86.635-86.613-134.357-201.813-134.357-324.31s47.722-237.695 134.357-324.309C279.637-16.277 394.816-64 517.334-64s237.695 47.723 324.33 134.357c86.635 86.614 134.357 201.792 134.357 324.31S928.3 632.363 841.664 718.976C755.029 805.611 639.851 853.333 517.334 853.333zM801.11 110.891c-75.797-75.819-176.576-117.568-283.776-117.568-107.2 0-207.978 41.749-283.776 117.568-75.818 75.797-117.546 176.576-117.546 283.776s41.749 207.978 117.568 283.776C309.376 754.26 410.155 796.01 517.355 796.01c107.2 0 207.978-41.75 283.776-117.568 75.818-75.798 117.568-176.576 117.568-283.776s-41.771-207.979-117.59-283.776zM524.672 349.568V645.995c0 15.829-12.843 28.672-28.672 28.672s-28.672-12.843-28.672-28.672v-315.328c0-11.456 6.827-21.846 17.387-26.347M746.667 330.667c0-17.664-14.336-32-32-32H501.333c-17.664 0-32 14.336-32 32s14.336 32 32 32h213.334c17.664 0 32-14.336 32-32z"  horiz-adv-x="1024" />

    
    <glyph glyph-name="754bianjiqi_daima" unicode="&#58971;" d="M984.752 363.28L790.432 169.2c-12-11.968-31.456-11.968-43.456 0-11.984 11.984-11.984 31.392 0 43.36l172.64 172.4-172.64 172.384c-11.984 11.984-11.984 31.392 0 43.36 12 11.984 31.456 11.984 43.456 0l194.32-194.064c12-11.984 12-31.392 0-43.36zM347.776-15.568c-8.832-15.424-28.4-20.72-43.712-11.808-15.312 8.896-20.544 28.624-11.712 44.048l384 766.896c8.832 15.44 28.4 20.72 43.712 11.808 15.312-8.896 20.544-28.624 11.712-44.048l-384-766.896zM277.152 169.2c-12-11.968-31.456-11.968-43.456 0L39.36 363.28c-11.984 11.968-11.984 31.376 0 43.36l194.336 194.064c12 11.984 31.456 11.984 43.456 0 11.984-11.968 11.984-31.376 0-43.36L104.528 384.96l172.624-172.4c11.984-11.968 11.984-31.376 0-43.36z"  horiz-adv-x="1024" />

    
    <glyph glyph-name="759bianjiqi_riqi" unicode="&#58972;" d="M558.532 430.562h-93.094v-93.094h93.094v93.094z m0-162.906h-93.094v-93.094h93.094v93.094z m372.374 535.25h-93.093V872.72C837.813 885.58 827.392 896 814.532 896S791.28 885.58 791.28 872.72v-69.814H232.719V872.72C232.72 885.58 222.3 896 209.44 896c-12.861 0-23.252-10.42-23.252-23.28v-69.814H93.094C41.683 802.906 0 761.224 0 709.813V-34.906C0-86.317 41.683-128 93.094-128h837.812c51.411 0 93.094 41.683 93.094 93.094V709.813c0 51.41-41.683 93.093-93.094 93.093z m46.532-837.812c0-25.69-20.841-46.532-46.532-46.532H93.094c-25.72 0-46.562 20.841-46.562 46.532V523.625h930.906v-558.531z m0 605.093H46.532V709.813c0 25.72 20.841 46.562 46.562 46.562h93.093v-69.813c0-12.86 10.39-23.281 23.251-23.281 12.86 0 23.281 10.42 23.281 23.28v69.814h558.562v-69.813c0-12.86 10.39-23.281 23.25-23.281 12.861 0 23.282 10.42 23.282 23.28v69.814h93.093c25.69 0 46.532-20.842 46.532-46.562v-139.626zM791.281 267.656h-93.094v-93.094h93.094v93.094z m0 162.906h-93.094v-93.094h93.094v93.094zM558.53 104.719h-93.093v-93.094h93.094V104.72z m-232.718 0h-93.094v-93.094h93.094V104.72z m0 325.843h-93.094v-93.094h93.094v93.094z m0-162.906h-93.094v-93.094h93.094v93.094z"  horiz-adv-x="1024" />

    
    <glyph glyph-name="763bianjiqi_tupianzhuancun" unicode="&#58974;" d="M590.486-62.305h-426.71c-66.104 0-119.621 53.62-119.621 119.622V715.493c0 66.104 53.517 119.622 119.622 119.622H821.85c66.104 0 119.622-53.518 119.622-119.622v-333.181c-17.703 18.112-37.861 33.87-59.862 46.661v286.52c0 33.052-26.708 59.862-59.862 59.862H163.777c-33.053 0-59.863-26.708-59.863-59.862v-505.605l137.632 131.8c1.637 1.739 3.275 3.478 5.219 4.911l5.833 3.786c5.218 2.66 11.051 4.4 17.293 4.4 12.177 0 23.024-5.935 29.778-15.042l124.022-101.51c6.856-4.502 6.856-4.502 13.2 0l27.424 27.424c-7.982-26.298-12.28-54.234-12.28-83.09 0-3.889 0.103-7.777 0.205-11.564-7.88-5.116-15.247-6.753-21.693-6.753-9.005 0-20.568 9.21-31.108 16.577L277.36 280.802c-5.321 4.707-8.8 4.4-14.224-0.102l-159.12-152.367v-70.914c0-33.052 26.707-59.862 59.862-59.862h356.205c19.954-23.536 43.796-43.797 70.402-59.862z m121.054 529.14c-6.446 5.32-14.735 8.595-23.842 8.595-13.815 0-25.685-7.47-32.131-18.623l-1.126-1.126c18.317 5.628 37.452 9.312 57.1 11.154zM313.38 685.51c-49.526 0-89.741-40.216-89.741-89.742s40.215-89.742 89.742-89.742 89.742 40.215 89.742 89.742-40.215 89.742-89.742 89.742z m0-119.622c-16.474 0-29.88 13.405-29.88 29.88s13.406 29.88 29.88 29.88 29.88-13.406 29.88-29.88-13.404-29.88-29.88-29.88z m424.254-138.655c-135.176 0-244.77-109.594-244.77-244.77s109.594-244.77 244.77-244.77 244.77 109.594 244.77 244.77-109.594 244.77-244.77 244.77z m152.981-305.86H737.532v-91.89L584.448 182.566 737.532 335.65v-91.891h153.083v-122.385z"  horiz-adv-x="1024" />

    
    <glyph glyph-name="768bianjiqi_shanchuhang" unicode="&#58975;" d="M1024-128H896L768 21.344 640-128H512l192 224-192 224h128l128-149.328L896 320h128L832 96l192-224zM576 384H320v-128h106.672L448 192H320v-128h170.672L512 0H64c-35.344 0-64 28.656-64 64V384s28.656 64 64 64h768v-64H576z m-320 0H64v-128h192V384z m0-192H64v-128h192V192zM64 640c-35.344 0-64 28.656-64 64V832S28.656 896 64 896h704c35.344 0 64-28.656 64-64v-192H64zM256 832H64v-128h192V832z m256 0H320v-128h192V832z m256 0H576v-128h192V832z"  horiz-adv-x="1024" />

    
    <glyph glyph-name="769bianjiqi_shanchulie" unicode="&#58976;" d="M1024-128H896L768 21.344 640-128H512l192 224-192 224h128l128-149.328L896 320h128L832 96l192-224zM448 128h64v-64h-64s-64 28.656-64 64V832c0 35.344 28.656 64 64 64h320c35.344 0 64-28.656 64-64v-448h-64V576H640v-192h-64V576H448v-192h64v-64h-64v-192z m192 512h128V832H640v-192z m-64 0V832H448v-192h128zM64 64S0 92.656 0 128V832C0 867.344 28.656 896 64 896h128c35.344 0 64-28.656 64-64v-768H64zM192 832H64v-192h128V832z m0-256H64v-192h128V576z m0-256H64v-192h128V320z"  horiz-adv-x="1024" />

    
    <glyph glyph-name="765bianjiqi_shanchubiaoge" unicode="&#58977;" d="M950.851429-127.994V91.433714l219.427714 146.284143v-219.426714L950.851429-127.994zM511.997 164.575286L804.566286 384.003h365.712857L877.708857 164.575286H511.997zM877.708857 603.431714H658.282143V384.003H365.711857v-146.285143h73.142572v-73.142571H73.142571C32.749808 164.575286 0 197.325094 0 237.717857V822.857429C0 863.250192 32.749808 896 73.142571 896h804.566286c40.392763 0 73.142571-32.749808 73.142572-73.142571v-365.711858h-73.142572V603.430714zM292.569286 822.857429H73.142571v-146.285143H292.568286V822.857429z m0-219.426715H73.142571v-146.285143H292.568286V603.430714z m0-219.427714H73.142571v-146.285143H292.568286V384.003zM585.139571 822.857429H365.711857v-146.285143h219.427714V822.857429z m0-219.426715H365.711857v-146.285143h219.427714V603.430714zM877.708857 822.857429H658.282143v-146.285143h219.426714V822.857429z m0-950.851429H511.997V91.433714h365.711857V-127.994z"  horiz-adv-x="1170" />

    
    <glyph glyph-name="770bianjiqi_hebingdanyuange" unicode="&#58978;" d="M960-128H640c-35.344 0-64 28.656-64 64V192h64v-256h320V832H640v-256h-64V832s28.656 64 64 64h320c35.344 0 64-28.656 64-64v-896s-28.656-64-64-64zM256 320H128V448h128V576l192-192-192-192V320zM384 832H64v-896h320V192h64v-256s-28.656-64-64-64H64c-35.344 0-64 28.656-64 64V832S28.656 896 64 896h320c35.344 0 64-28.656 64-64v-256h-64V832z m192-448l192 192v-128h128v-128H768v-128L576 384z"  horiz-adv-x="1024" />

    
    <glyph glyph-name="767bianjiqi_charulie" unicode="&#58979;" d="M896-128H768s-64 28.656-64 64V576c0 35.344 28.656 64 64 64h128c35.344 0 64-28.656 64-64v-640c0-35.344-28.656-64-64-64z m0 704H768v-192h128V576z m0-256H768v-128h128V320z m0-192H768v-192h128V128zM576 704L448 896h320L640 704h-64z m-64-128v-640c0-35.344-28.656-64-64-64H128s-64 28.656-64 64V576c0 35.344 28.656 64 64 64h320c35.344 0 64-28.656 64-64z m-64-256H320v-128h128V320z m0-384V128H320v-192h128zM256 576H128v-192h128V576z m0-256H128v-128h128V320z m0-192H128v-192h128V128z m64 256h128V576H320v-192z"  horiz-adv-x="1024" />

    
    <glyph glyph-name="766bianjiqi_charuhang" unicode="&#58980;" d="M1097.143-128H365.714c-40.393 0-73.143 32.75-73.143 73.143V310.857S325.321 384 365.714 384h731.429c40.393 0 73.143-32.75 73.143-73.143v-365.714s-32.75-73.143-73.143-73.143z m-512 438.857H365.714v-146.286h219.429V310.857z m0-219.428H365.714v-146.286h219.429V91.429zM804.57 310.857H658.286v-146.286H804.57V310.857z m0-219.428H658.286v-146.286H804.57V91.429z m292.572 219.428H877.714v-146.286h219.429V310.857zM877.714 91.43v-146.286h219.429V91.429H877.714z m219.429 512H365.714c-40.393 0-73.143 32.75-73.143 73.142V822.857S325.321 896 365.714 896h731.429c40.393 0 73.143-32.75 73.143-73.143v-146.286s-32.75-73.142-73.143-73.142z m-512 219.428H365.714v-146.286h219.429V822.857z m219.428 0H658.286v-146.286H804.57V822.857z m292.572 0H877.714v-146.286h219.429V822.857zM0 676.571l219.429-146.285v-73.143L0 310.857V676.571z"  horiz-adv-x="1171" />

    
    <glyph glyph-name="762bianjiqi_jietu" unicode="&#58981;" d="M972.8 59.733h-34.133V742.4c0 18.842-15.292 34.133-34.134 34.133H153.6V861.867C153.6 880.708 138.308 896 119.467 896S85.333 880.708 85.333 861.867v-85.334H51.2c-18.842 0-34.133-15.291-34.133-34.133s15.291-34.133 34.133-34.133h34.133V25.6c0-18.842 15.292-34.133 34.134-34.133H870.4v-85.334c0-18.841 15.292-34.133 34.133-34.133s34.134 15.292 34.134 34.133v85.334H972.8c18.842 0 34.133 15.291 34.133 34.133s-15.291 34.133-34.133 34.133z m-819.2 0V708.267h716.8v-648.534H153.6zM273.067 537.6a4 4 0 1 1 136.533 0 4 4 0 1 1-136.533 0zM818.193 169.694L716.851 440.405c-2.526 6.725-8.294 11.145-15.599 11.93-7.287 0.785-13.892-2.321-17.869-8.346L568.747 268.971c-5.223-7.953-15.531-10.752-24.2-6.554l-196.353 95.386c-8.653 4.198-18.978 1.416-24.183-6.537l-116.6-177.988c-3.806-5.82-4.045-12.647-0.648-18.705s9.438-9.506 16.503-9.506H800.58c6.332 0 11.742 2.747 15.377 7.833 3.618 5.086 4.404 10.991 2.236 16.794z"  horiz-adv-x="1024" />

    
    <glyph glyph-name="764bianjiqi_charubiaoge" unicode="&#58982;" d="M1142.154 896H39.384C7.996 896 0 887.73 0 856.615v-945.23C0-119.73 7.995-128 39.385-128h1102.769c31.39 0 39.384 8.27 39.384 39.385V856.615c0 31.114-7.995 39.385-39.384 39.385zM354.462-49.23L77.47-52.5V146.432l276.992 1.26V-49.23z m0 275.692H78.769V423.385h275.693v-196.923z m0 275.692H78.769V659.692h275.693v-157.538z m393.846-551.385H433.23V147.692h315.077V-49.23z m0 275.693H433.23V423.385h315.077v-196.923z m0 275.692H433.23V659.692h315.077v-157.538z m354.461-551.385H827.077V147.692h275.692V-49.23z m0 275.693H827.077V423.385h275.692v-196.923z m0 275.692H827.077V659.692h275.692v-157.538z"  horiz-adv-x="1181" />

    
    <glyph glyph-name="772bianjiqi_tubiao" unicode="&#58983;" d="M918.275-66.026H104.548c-23.246 0-42.09 18.844-42.09 42.09V789.791c0 23.245 18.843 42.09 42.09 42.09h813.727c23.245 0 42.09-18.846 42.09-42.09v-813.726c0-23.247-18.845-42.09-42.09-42.09zM876.186 747.7H146.638v-729.547h729.548V747.7zM230.815 228.6h84.18c23.245 0 42.09-18.846 42.09-42.088v-84.18c0-23.246-18.845-42.09-42.09-42.09h-84.18c-23.246 0-42.089 18.844-42.089 42.09v84.18c0 23.242 18.843 42.088 42.089 42.088z m238.507 378.804h84.18c23.244 0 42.088-18.843 42.088-42.09V102.33c0-23.246-18.845-42.09-42.089-42.09h-84.179c-23.245 0-42.089 18.844-42.089 42.09V565.313c0 23.248 18.844 42.09 42.089 42.09z m238.506-168.356h84.18c23.244 0 42.088-18.848 42.088-42.09V102.33c0-23.246-18.845-42.09-42.089-42.09h-84.179c-23.245 0-42.089 18.844-42.089 42.09V396.957c0 23.243 18.844 42.09 42.09 42.09z"  horiz-adv-x="1024" />

    
    <glyph glyph-name="773bianjiqi_dayin" unicode="&#58984;" d="M760.902 497.88h55.821v-55.81h-55.821v55.81zM565.553 497.88H705.09v-55.81H565.553v55.81zM370.193 107.172H649.27v-55.811H370.193v55.811zM370.193 246.71H649.27v-55.81H370.193v55.81zM202.75 190.9h55.81V302.531h-55.81v55.81h613.973v-55.81h-55.821v-111.633h55.821c61.02 0 83.717 22.697 83.717 83.717V497.88c0 46.171-37.555 83.727-83.717 83.727H202.75c-46.172 0-83.697-37.556-83.697-83.727v-223.265c0-45.097 63.804-83.717 83.697-83.717zM956.26 497.88v-223.264c0-115.337-75.878-139.538-139.538-139.538h-55.821v-195.35H258.56v195.35H202.75c-46.52 0-139.528 60.313-139.528 139.538V497.88c0 76.942 62.585 139.538 139.528 139.538h83.727V832.779h446.52v-195.36h83.726c76.932 0 139.538-62.596 139.538-139.538z m-251.17-502.34V302.532H314.382V-4.46h390.709z m-27.906 641.879V776.957H342.288v-139.538h334.897z"  horiz-adv-x="1024" />

    
    <glyph glyph-name="774bianjiqi_yulan" unicode="&#58985;" d="M633.01097-81.863761v0.465H139.658091c-24.667994 0-47.939988 9.773998-65.625984 27.459993-17.685996 17.686996-27.459993 40.95799-27.459993 65.625984V756.372034c0 24.666994 9.773998 47.938988 27.459993 65.624984s40.95799 27.459993 65.625984 27.459993h605.055852c24.667994 0 47.939988-9.773998 65.624984-27.459993 17.686996-17.685996 27.459993-40.95799 27.459993-65.624984v-209.442949c0-12.799997 10.472997-23.270994 23.271995-23.270994 12.799997 0 23.270994 10.471997 23.270994 23.269994V756.373034C884.341909 833.167015 821.509924 896 744.713943 896H139.658091C62.86211 896 0.029125 833.167015 0.029125 756.372034v-744.684818c0-76.795981 62.832985-139.628966 139.628966-139.628966H633.00997v0.466c10.704997 2.093999 18.616995 11.634997 18.616996 22.805994s-7.911998 20.710995-18.616996 22.805995zM721.442949 703.778047c0 12.799997-10.471997 23.271994-23.271994 23.271994h-511.969875c-12.799997 0-23.271994-10.472997-23.271995-23.271994 0-12.799997 10.471997-23.270994 23.270995-23.270994h511.970875c12.799997 0 23.271994 10.471997 23.271994 23.270994zM186.20008 38.681209H325.830045c12.798997 0 23.270994 10.472997 23.270995 23.271995s-10.471997 23.270994-23.270995 23.270994H186.20008c-12.798997 0-23.270994-10.471997-23.270995-23.270994S173.400083 38.680209 186.20008 38.680209zM186.20008 359.594131h93.085977c12.799997 0 23.270994 10.471997 23.270994 23.271994s-10.471997 23.269994-23.270994 23.269995H186.20008c-12.798997 0-23.270994-10.470997-23.270995-23.269995s10.471997-23.271994 23.270995-23.271994zM1017.221877-88.14776L845.013919 84.061198c39.09599 46.541989 62.599985 106.582974 62.599984 171.974958 0 147.773964-119.847971 267.621935-267.620934 267.621935S372.372034 403.81012 372.372034 256.036156s119.846971-267.619935 267.619935-267.619934c65.625984 0 125.433969 23.502994 171.975958 62.599984l172.208958-172.209958c9.075998-9.074998 23.969994-9.074998 32.811992 0s9.309998 23.969994 0.233 33.045992z m-377.229908 123.10597c-121.94097 0-221.077946 99.135976-221.077946 221.077946s99.136976 221.078946 221.078946 221.078946S861.069915 377.979126 861.069915 256.036156s-99.135976-221.077946-221.077946-221.077946z"  horiz-adv-x="1024" />

    
    <glyph glyph-name="701bianjiqi_chexiao" unicode="&#58986;" d="M761.856-128C875.584 78.08 896 392.32 448 381.824V128L64 512 448 896v-248.384c576 13.952 594.56-472.192 313.856-775.616z"  horiz-adv-x="1024" />

    
    <glyph glyph-name="700bianjiqi_html" unicode="&#58987;" d="M173.152 418.384H65.104V526.416H16v-284.832h49.104v127.68h108.032v-127.68h49.104V526.416h-49.104v-108.032z m88.4 68.752h78.576v-245.552h49.104V487.136h78.576v39.28H261.552v-39.28z m373.984-154.784l-49.872 194.064h-78.576v-284.832h49.104V467.488l49.104-225.904h58.928l49.952 228.192-0.848-228.192h49.104V526.416h-78.576l-48.32-194.064z m234.96-51.488V526.416h-49.104v-284.832H1008v39.28H870.496z"  horiz-adv-x="1024" />

    
    <glyph glyph-name="702bianjiqi_zhongzuo" unicode="&#58988;" d="M892.541 540.694L579.154 249.692V428.771c-92.01 0-313.388 13.727-313.388-223.849 0-124.428 82.523-244.616 201.464-268.618-191.124 25.576-335.773 185.025-335.773 380.543 0 363.184 384.324 358.157 447.697 358.157V831.696l313.387-291.002z"  horiz-adv-x="1024" />

    
    <glyph glyph-name="776bianjiqi_congcaogaoxiangjiazai" unicode="&#58989;" d="M434.769 126.895c1.206-1.826 2.178-1.658 2.816 0.285 3.25 10.409 13.877 44.03 18.335 59.501 148.635-26.6 200.527 92.302 209.846 117.812 1.14 3.017 0.301 3.47-2.078 1.223-14.146-12.806-66.708-56.685-127.283-57.942-41.03-0.888-61.881 11.682-61.881 11.682l17.633 64.044s1.138 4.827-3.219 2.833c-4.29-1.978-140.423-64.379-140.423-64.379s-2.616-1.123-0.94-3.554c1.444-2.261 74.522-112.48 87.194-131.505zM359.277 389.153c16.326 14.549 68.117 56.099 127.484 57.372 41.634 0.838 62.786-11.85 62.786-11.85l-18.17-65.987s-1.173-4.207 3.22-1.978c23.33 11.682 137.874 63.054 141.73 65 2.917 1.39 1.44 4.776 1.44 4.776l-86.888 131.17s-2.916 3.487-4.425-0.653c-3.787-12.118-13.777-43.662-18.067-58.545-148.2 26.532-201.568-89.604-212.294-118.115-1.476-3.922-0.336-4.274 3.184-1.19zM929.45 763.542H94.163c-16.02 0-29.008-12.987-29.008-29.007v-35.615c0-16.02 12.987-29.007 29.008-29.007h30.599l134.83-692.746H764.58l132.75 692.746h32.12c16.02 0 29.008 12.987 29.008 29.007v35.615c0 16.02-12.987 29.007-29.008 29.007zM730.75 18.102H293.327L166.464 669.915h689.19L730.748 18.102z"  horiz-adv-x="1024" />

    
    <glyph glyph-name="777bianjiqi_bangzhu" unicode="&#58990;" d="M512.697 832.555c-247.538 0-448.208-200.65-448.208-448.208 0-247.52 200.67-448.208 448.208-448.208s448.208 200.688 448.208 448.208c0 247.558-200.669 448.208-448.208 448.208z m-1.709-671.693c-25.55 0-46.26 21.301-46.26 47.563s20.71 47.563 46.26 47.563c25.562 0 46.27-21.3 46.27-47.563s-20.71-47.563-46.27-47.563z m129.224 298.916c-6.384-12.292-13.97-22.87-22.752-31.77-8.78-8.936-24.557-23.928-47.299-45.047-6.291-5.945-11.334-11.16-15.12-15.684-3.792-4.487-6.619-8.608-8.462-12.366a60.048 60.048 0 0 1-4.303-11.197c-1.013-3.756-2.544-10.322-4.58-19.733-3.517-19.95-14.524-29.91-33.026-29.91-9.612 0-17.709 3.248-24.266 9.775-6.574 6.53-9.848 16.195-9.848 29.072 0 16.086 2.398 30.055 7.204 41.836 4.814 11.819 11.188 22.178 19.15 31.077 7.96 8.9 18.684 19.515 32.18 31.807 11.835 10.724 20.398 18.821 25.66 24.293a81.893 81.893 0 0 1 13.324 18.273c3.61 6.712 5.415 14.007 5.415 21.849 0 15.355-5.509 28.305-16.504 38.845-11.017 10.542-25.205 15.831-42.594 15.831-20.355 0-35.336-5.325-44.948-15.976-9.62-10.65-17.754-26.298-24.42-47.053-6.291-21.666-18.22-32.499-35.791-32.499-10.35 0-19.103 3.794-26.217 11.38-7.121 7.587-10.678 15.794-10.678 24.584 0 18.238 5.635 36.695 16.915 55.406 11.28 18.676 27.757 34.177 49.396 46.433 21.63 12.293 46.889 18.42 75.742 18.42 26.826 0 50.49-5.143 71.026-15.392 20.534-10.25 36.392-24.22 47.58-41.837 11.19-17.654 16.789-36.84 16.789-57.558 0-16.305-3.191-30.604-9.573-42.86z"  horiz-adv-x="1024" />

    
    <glyph glyph-name="703bianjiqi_Bjiacu" unicode="&#58991;" d="M320.768 103.68v21.568c18.176 4.672 30.336 9.92 36.544 15.616 6.144 5.696 10.176 13.888 12.096 24.448s2.88 26.688 2.88 48.448v380.8c0 20.224-0.768 35.008-2.176 44.224-1.472 9.216-3.904 16.448-7.296 21.568-3.392 5.12-7.872 9.216-13.44 12.352-5.568 3.072-15.104 6.528-28.608 10.304v21.568H561.6c46.656 0 84.16-4.992 112.512-14.976 28.352-9.984 49.344-24.768 63.168-44.224 13.824-19.52 20.672-44.672 20.672-75.52 0-25.536-4.928-47.68-14.72-66.496-9.856-18.816-22.656-34.368-38.528-46.656-15.872-12.352-36.224-23.744-61.184-34.368v-3.968c39.936-12.032 70.144-30.592 90.688-55.68 20.544-25.088 30.848-54.976 30.848-89.6 0-39.936-8.896-72.512-26.624-97.728-17.792-25.216-42.624-43.52-74.624-54.784-32-11.328-70.72-16.96-116.224-16.96H320.768z m210.88 331.456c44.608 0 78.72 10.752 102.4 32.384 23.616 21.568 35.456 52.928 35.456 94.016 0 20.224-3.328 37.056-9.92 50.432-6.592 13.312-15.744 23.936-27.328 31.872s-25.28 13.568-41.152 16.96c-15.872 3.392-33.024 5.056-51.52 5.056-11.136 0-25.792-0.32-44.032-0.896-18.176-0.576-31.872-1.152-40.96-1.792v-228.032h77.056z m-76.992-289.664c21.44-2.048 45.376-3.072 71.744-3.072 38.464 0 68.288 4.864 89.6 14.528 21.312 9.664 36.672 24 46.208 42.944 9.536 18.944 14.272 42.624 14.272 71.104 0 28.48-5.184 51.968-15.616 70.464-10.432 18.496-26.496 32.256-48.192 41.408-21.696 9.024-51.648 13.568-89.792 13.568h-68.224v-250.944z"  horiz-adv-x="1024" />

    
    <glyph glyph-name="704bianjiqi_Ixieti" unicode="&#58992;" d="M517.888 202.624c-3.456-18.688-5.376-32.448-5.76-41.088-0.32-8.64 0.512-15.488 2.496-20.48s5.568-9.216 10.688-12.544 13.824-6.72 26.112-10.048l-3.776-20.48H369.984l3.776 20.48c18.24 4.48 30.848 9.408 37.696 14.912 6.912 5.44 12.16 13.184 15.872 23.296 3.712 10.048 7.424 25.408 11.328 46.08l67.392 362.56c3.584 19.328 5.504 33.28 5.76 42.112 0.192 8.768-0.832 15.616-3.136 20.544-2.304 4.864-5.888 8.768-10.624 11.712-4.8 2.944-13.376 6.208-25.536 9.856l3.776 20.48h177.728l-3.776-20.48c-12.928-3.072-22.464-6.144-28.48-9.216-6.08-3.072-11.136-6.912-15.232-11.52s-7.744-11.52-11.008-20.736c-3.264-9.152-6.72-23.424-10.304-42.688l-67.328-362.752z"  horiz-adv-x="1024" />

    
    <glyph glyph-name="705bianjiqi_Uxiahuaxian" unicode="&#58993;" d="M92.23 7.337h830.613v-69.22H92.23v69.22z m0 830.611h357.717v-54.425l-77.262-5.442-17.642-15.782v-390.222c0-74.38 15.817-127.535 47.452-159.465 31.635-31.925 83.545-47.895 155.74-47.895 66.515 0 114.675 16.965 144.485 50.89 29.81 33.93 44.715 89.525 44.715 166.81V757.945l-18.86 19.047-79.695 6.53V837.948h282.889v-54.425l-76.05-6.53-17.035-19.047v-386.959c0-103.405-25.955-178.33-77.87-224.769-51.91-46.445-135.665-69.665-251.247-69.665-60.435 0-113.462 7.895-159.087 23.675-45.627 15.785-81.42 38.365-107.377 67.76-19.872 23.22-33.967 49.8-42.28 79.73-8.315 29.935-12.472 72.84-12.472 128.715V762.298l-17.642 15.782-78.477 5.442V837.948z"  horiz-adv-x="1024" />

    
    <glyph glyph-name="708bianjiqi_shangbiao" unicode="&#58994;" d="M783.97 542.157v-44.597h114.167v-57.083h-171.25V570.7l114.167 53.515v44.597H726.887v57.083h171.251v-130.223l-114.167-53.515z m-82.058-44.596H580.61L412.926 329.877 245.185 497.561H123.883l228.335-228.335L123.883 40.89h121.303l167.741 167.683L580.61 40.89h121.302L473.576 269.226l228.336 228.335z"  horiz-adv-x="1024" />

    
    <glyph glyph-name="707bianjiqi_shanchuxian" unicode="&#58995;" d="M965.612 425.062H722.089c-13.491 12.97-27.55 24.28-42.189 33.9-23.926 15.693-57.6 33.377-101.023 53.038-43.433 19.656-72.192 33.014-86.277 40.054-43.136 20.833-64.706 53.852-64.706 99.046 0 25.528 8.069 48.64 24.212 69.33 16.138 20.69 38 33.08 65.593 37.197 14.668 2.345 25.528 3.522 32.568 3.522 44.902 0 83.338-15.114 115.328-45.337 24.94-20.839 44.749-48.348 59.428-82.535 14.669-34.19 22.005-55.982 22.005-65.367h26.855l-12.77 259.712h-23.331c0-13.501-2.35-24.212-7.04-32.133-6.754-8.514-13.942-12.764-21.57-12.764-6.462 0-13.8 2.345-22.012 7.045-36.684 19.656-68.229 32.42-94.638 38.293-26.409 5.867-62.658 8.806-108.723 8.806-63.683-0.88-117.463-20.03-161.331-57.446-43.873-37.417-68.89-93.978-75.05-169.698 0-74.245 19.513-130.227 58.543-167.93 5.919-5.72 12.2-11.285 18.775-16.727H64.486v-72.561h386.125c4.972-2.033 10-4.045 15.135-6.011 52.234-19.082 90.824-43.873 115.768-74.388 24.94-30.526 37.417-76.155 37.417-136.899-4.992-37.269-20.91-65.813-47.76-85.617-26.848-19.809-57.88-29.716-93.096-29.716-40.791 0-74.988 12.032-102.564 36.096-33.167 27.878-57.078 61.256-71.752 100.147-14.679 38.881-22.01 65.654-22.01 80.333h-21.566l-11.003-277.76h27.29c0 15.55 5.284 27.581 15.846 36.096 5.868 3.522 11.884 5.284 18.048 5.284 5.868 0 13.788-2.356 23.772-7.045 49.004-32.87 117.53-50.325 205.568-52.383 39.02 0 71.45 3.676 97.28 11.003 35.216 9.687 65.51 28.175 90.9 55.465 25.38 27.29 44.524 59.494 57.442 96.62 12.908 37.12 19.369 75.934 19.369 116.428 0 50.918-9.2 95.027-27.571 132.347h188.488v72.555z"  horiz-adv-x="1024" />

    
    <glyph glyph-name="775bianjiqi_chaxuntihuan" unicode="&#58996;" d="M976.95 239.95c0 0.184-0.187 0.366-0.188 0.549-0.018 6.181-0.405 12.298-1.023 18.322 0 0-4.459 0.103-4.464 0.155-1.985 19.164-9.675 37.42-18.885 54.384v0.023c0 0.627 3.988 1.245 3.729 1.863l-141.56 343.122c-0.117 0.277 0.857 0.555 0.727 0.824-19.66 51.36-68.798 85.75-123.584 85.75-73.344 0-132.741-59.458-132.741-132.55 0-3.154 0.25-4.193 0.442-6.056 0.107-1.057 0.324-2.536 0.511-5.877-0.004-0.833 0.084-1.932 0.196-2.774l3.4-25.341h-68.178l3.365 25.34c0.112 0.834 0.166 1.796 0.162 2.629 0.188 3.35 0.335 4.901 0.443 5.958 0.192 1.864 0.305 2.935 0.305 6.088 0 73.093-59.673 132.566-133.017 132.566-54.781 0-104.46-34.375-124.129-85.725-0.13-0.278-0.256-0.552-0.376-0.838L94.366 315.245c-0.256-0.609-4.623-1.225-4.623-1.852v-0.023c-9.21-22.35-11.386-46.045-11.461-71.96-0.001-0.177 3.823 0.407 3.823 0.407h0.079c0-100.284 72.354-174.048 164.752-183.459 6.16-0.627 12.416-1.418 18.739-1.418 5.93 0 11.802 0.09 17.61 0.657 2.866 0.275 5.66 0.662 8.486 1.067 2.775 0.406 5.568 0.683 8.306 1.212 3.763 0.716 7.44 1.628 11.119 2.57 1.615 0.421 3.248 0.772 4.847 1.236 4.292 1.23 8.485 2.651 12.642 4.178 0.828 0.307 1.663 0.587 2.486 0.907a183.36 183.36 0 0 1 13.668 5.913l0.567 0.272c48.533 23.553 85.1 67.77 98.255 121.24 0.064 0.26 0.138 0.517 0.2 0.78 1.218 5.045 2.195 10.169 2.985 15.367 0.044 0.287 0.123 0.562 0.165 0.852l0.071 0.349c0.09 0.43 0.166 0.86 0.225 1.298l0.556 4.148c0.105 0.914 0.275 1.679 0.366 2.597L469.49 379.96h119.86l21.262-158.378c0.091-0.918 0.26-1.747 0.365-2.66l0.557-4.117c0.058-0.44 0.134-0.854 0.224-1.284l0.072-0.35c0.044-0.3 0.126-0.58 0.17-0.879 0.789-5.18 1.762-10.282 2.975-15.312 0.068-0.283 0.148-0.557 0.216-0.838 13.166-53.46 49.736-97.663 98.27-121.206l0.516-0.249a182.993 182.993 0 0 1 13.707-5.935c0.81-0.313 1.635-0.595 2.45-0.898 4.167-1.532 8.37-2.964 12.673-4.195 1.589-0.461 3.21-0.824 4.816-1.24 3.688-0.948 7.371-1.888 11.143-2.607 2.732-0.53 5.518-0.865 8.286-1.268 2.832-0.408 5.63-0.912 8.502-1.187 5.807-0.567 11.674-0.892 17.605-0.892 6.323 0 12.73 0.323 18.89 0.95 92.4 9.411 164.9 87.675 164.9 182.52v0.015zM692.25 708.25c40.018 0 76.29-25.416 90.266-63.238 0.256-0.69 0.56-1.38 0.905-2.043l102.705-245.13c-27.304 16.14-59.018 25.575-92.967 25.575-68.649 0-128.526-37.956-159.981-93.929l-36.516 272.212c-0.26 4.909-0.479 6.97-0.622 8.404-0.076 0.708-0.111 1.102-0.111 2.293-0.001 52.855 43.21 95.856 96.321 95.856z m-416.867-65.362c0.358 0.69 0.672 1.398 0.94 2.124 13.976 37.823 50.249 63.238 90.266 63.238 53.11 0 96.322-43.001 96.322-95.856 0-1.191-0.036-1.586-0.112-2.293-0.143-1.434-0.363-3.494-0.622-8.404l-36.515-272.212c-31.456 55.973-91.332 93.929-159.981 93.929-33.948 0-65.663-9.433-92.966-25.573l102.668 245.047z m-84.978-531.98c-45.75 24.885-82.244 73.395-82.244 129.04v0.174c0 5.102 5.653 10.173 6.186 15.202 0.083 0.788 2.95 1.546 3.045 2.33 0.532 4.344 2.519 8.676 3.444 12.955 0.11 0.511 0.947 1.001 1.061 1.512 1.035 4.544 2.573 9.06 4.05 13.516 0.108 0.33 0.415 0.647 0.525 0.976 1.53 4.513 3.357 8.976 5.337 13.382 23.007 51.043 74.304 86.723 133.829 86.723 80.931 0 146.797-65.846 146.797-146.777 0-4.822-0.256-9.581-0.713-14.284l-0.504-3.799c-0.098-0.788-0.246-1.556-0.355-2.338-0.032-0.183-0.069-0.365-0.097-0.55-7.057-49.268-38.7-90.206-81.3-111.015-0.08-0.038-0.16-0.076-0.24-0.117a146.667 146.667 0 0 0-11.142-4.835c-0.6-0.23-1.207-0.44-1.81-0.663a145.734 145.734 0 0 0-10.288-3.416c-1.234-0.352-2.494-0.64-3.741-0.963-2.99-0.78-5.99-1.527-9.043-2.118-2.147-0.41-4.339-0.683-6.518-0.999-2.301-0.338-4.584-0.738-6.914-0.965-4.642-0.446-12.02-0.714-16.777-0.714-25.29 0.001-51.793 6.43-72.588 17.743z m284.007 305.895l15.997 118.704h78.021l15.998-118.704H474.413zM793.16 93.165c-4.757 0-9.449 0.27-14.09 0.714-2.336 0.229-4.623 0.63-6.93 0.967-2.173 0.317-4.357 0.587-6.5 0.997-3.059 0.592-6.067 1.34-9.063 2.123-1.238 0.32-2.49 0.607-3.715 0.96a145.54 145.54 0 0 0-10.32 3.423c-0.589 0.217-1.183 0.424-1.77 0.648a147.383 147.383 0 0 0-11.363 4.94c-42.616 20.804-74.275 61.756-81.338 111.042-0.03 0.192-0.068 0.382-0.102 0.573-0.109 0.772-0.257 1.53-0.353 2.306l-0.51 3.799c-0.456 4.703-0.723 9.462-0.723 14.284 0 80.931 65.845 146.777 146.777 146.777 59.526 0 110.784-35.682 133.79-86.727 1.969-4.38 3.699-8.818 5.222-13.303 0.121-0.36 0.273-0.708 0.393-1.07 1.459-4.408 2.646-8.877 3.673-13.375 0.126-0.556 0.306-1.09 0.426-1.649 0.917-4.244 1.551-8.54 2.082-12.85 0.1-0.816-2.693-1.602-2.608-2.422 0.532-5.028-2.167-10.099-2.167-15.2v-0.175c0-55.643-28.14-104.154-73.89-129.039-20.796-11.313-41.63-17.743-66.921-17.743zM279.441 319.44c0 10.131-8.215 18.346-18.346 18.346a96.7 96.7 0 0 1-22.867-2.732c-43.247-10.535-73.456-49.021-73.456-93.59 0-10.131 8.215-18.346 18.347-18.346s18.346 8.215 18.346 18.347c0 27.592 18.688 51.413 45.46 57.943a59.805 59.805 0 0 0 14.169 1.685c10.132 0 18.347 8.214 18.347 18.347zM793.16 337.786a96.7 96.7 0 0 1-22.866-2.732c-43.247-10.535-73.456-49.021-73.456-93.59 0-10.131 8.215-18.346 18.347-18.346s18.346 8.215 18.346 18.347c0 27.592 18.688 51.413 45.46 57.943a59.805 59.805 0 0 0 14.169 1.685c10.131 0 18.346 8.215 18.346 18.347 0.001 10.131-8.214 18.346-18.345 18.346z"  horiz-adv-x="1024" />

    
    <glyph glyph-name="710bianjiqi_qingchugeshi" unicode="&#58997;" d="M651.229 696.967c-6.769 6.77-17.845 6.77-24.615 0L74.612 144.964c-6.769-6.768-6.769-17.845 0-24.614l107.36-107.361c6.77-6.769 20.14-12.307 29.713-12.307H555.62c9.572 0 22.944 5.538 29.712 12.307l362.63 362.628c6.77 6.769 6.77 17.845 0 24.615L651.23 696.967zM551.187 78.478c-6.769-6.768-20.14-12.307-29.712-12.307H255.194c-9.573 0-22.944 5.539-29.712 12.307l-50.61 50.61c-6.769 6.769-6.769 17.845 0 24.615l202.36 202.361c6.77 6.768 17.846 6.768 24.616 0l201.155-201.156c6.769-6.768 6.769-17.845 0-24.614l-51.816-51.816z"  horiz-adv-x="1024" />

    
    <glyph glyph-name="706bianjiqi_azifubiankuang" unicode="&#58998;" d="M59.94 842.235v-914.36H974.3V842.235H59.94z m329.702-813.46c-1.06 0-8.269 0.7-21.632 2.104-13.363 1.408-23.388 2.898-30.075 4.49-6.681 1.577-15.211 3.947-25.584 7.122-10.373 3.164-18.028 7.475-22.948 12.918-4.926 5.452-7.388 12.052-7.388 19.778 0 8.807 8.878 37.376 26.64 85.74 17.76 48.348 31.216 82.739 40.36 103.132l237.4-1.05c0.347-1.054 7.73-18.652 22.158-52.756 14.418-34.125 27.08-65.326 37.98-93.64 10.901-28.319 16.349-45.286 16.349-50.908 0-2.816-0.44-5.279-1.321-7.383-0.88-2.115-2.458-4.05-4.752-5.806-2.278-1.756-4.218-3.17-5.8-4.219-1.583-1.055-4.22-2.197-7.91-3.44-3.703-1.224-6.242-2.018-7.65-2.366-1.398-0.348-4.132-0.963-8.182-1.843-4.05-0.886-6.241-1.326-6.59-1.326l-69.11-14.766c-0.5-4.363-0.875-8.96-1.197-13.67H390.103c-0.077 7.49-0.23 13.475-0.46 17.888z m-22.16 299.653L457.17 565.82c34.114-69.985 66.473-149.468 97.06-238.458-13.358-0.702-23.378-1.05-30.06-1.05-20.05 0-48.276 0.348-84.674 1.05-36.404 0.706-60.406 1.065-72.013 1.065zM897.91 39.05c-20.153 4.598-33.285 9.262-39.28 13.983-5.27 4.219-11.429 14.244-18.458 30.075-10.2 20.403-22.861 50.027-37.99 88.893-15.12 38.861-25.32 64.277-30.593 76.227-14.418 33.413-34.468 81.684-60.15 144.814-25.661 63.13-44.308 108.41-55.91 135.844L551.501 772.46H897.91v-733.41zM466.028 772.465L326.333 411.244l-125.03-324.972c-4.219-10.9-9.672-19.779-16.348-26.64-6.687-6.84-14.51-11.96-23.475-15.288-8.633-3.215-17.014-5.683-25.155-7.419v735.54h329.703z"  horiz-adv-x="1024" />

    
    <glyph glyph-name="711bianjiqi_geshishua" unicode="&#58999;" d="M714.463 691.423l192.312 110.98 91.548-112.812-143.89-159.426zM568.118 751.966c56.228-6.903 330-340.353 322.973-377.838-7.033-37.483-159.835-141.178-159.835-141.178l-346.67 398.678c-0.002 0 127.304 127.244 183.532 120.338zM351.402 582.622l334.712-389.624L480.71-74.067 16.934 513.296s91.932 3.81 168.517 23.953c50.123 13.185 165.951 45.373 165.951 45.373z"  horiz-adv-x="1024" />

    
    <glyph glyph-name="713bianjiqi_yinyong" unicode="&#58973;" d="M832 385.792H704c0 106.048 85.952 192 192 192 35.328 0 64 28.608 64 64 0 35.328-28.672 64-64 64-176.704 0-320-143.296-320-320v-256c0-70.72 57.344-128 128-128h128c70.656 0 128 57.28 128 128v128c0 70.72-57.344 128-128 128z m-448 192c35.328 0 64 28.608 64 64 0 35.328-28.672 64-64 64-176.704 0-320-143.296-320-320v-256c0-70.72 57.28-128 128-128h128c70.72 0 128 57.28 128 128v128c0 70.72-57.28 128-128 128H192c0 106.048 85.952 192 192 192z"  horiz-adv-x="1024" />

    
    <glyph glyph-name="714bianjiqi_chunwenbenniantie" unicode="&#59001;" d="M631.118 673H535.44v47.84c0 26.314-21.535 47.84-47.84 47.84h-95.678c-26.302 0-47.84-21.526-47.84-47.84V673h-95.678v-108.982h382.716V673zM487.6 673h-95.68v47.747c0.024 0.023 0.049 0.046 0.095 0.093h95.515c0.024-0.024 0.07-0.047 0.094-0.093L487.6 673z m239.198-185.73V649.08c0 13.152-10.767 23.92-23.92 23.92h-47.84v-47.84h23.92v-137.89h-273.99v-371.717H200.563V625.161h23.92V673h-47.84c-13.15 0-23.92-10.77-23.92-23.92v-557.448c0-13.151 10.77-23.92 23.92-23.92h228.325v-64.468l465.35-0.048-0.002 484.073H726.798z m95.798-436.18l-369.79-0.005V439.43h369.67l0.12-388.34zM756.143 360.892H519.675v-48.097h94.303v-183.427h48.095V312.795h94.07z"  horiz-adv-x="1024" />

    
    <glyph glyph-name="709bianjiqi_xiabiao" unicode="&#59002;" d="M787.893 138.899v-44.945h115.056v-57.528H730.366V167.663l115.056 53.933V266.54H730.366v57.528h172.583v-131.236l-115.056-53.933z m-82.696 587.863H582.951L413.962 557.775 244.917 726.762H122.67l230.111-230.111L122.67 266.54h122.247l169.045 168.989L582.951 266.54h122.247L475.086 496.652l230.111 230.111z"  horiz-adv-x="1024" />

    
    <glyph glyph-name="712bianjiqi_zidongpaiban" unicode="&#59003;" d="M992-128H31.296C14.016-128 0-113.984 0-96.704V236.352c0 17.28 14.016 31.296 31.296 31.296H992c17.28 0 31.296-14.016 31.296-31.296v-333.056c0.064-17.28-13.952-31.296-31.296-31.296zM62.656-65.344h898.048v270.4H62.656v-270.4zM992.32 292.608H551.296c-17.28 0-31.296 14.016-31.296 31.296v540.8C519.936 881.984 533.952 896 551.296 896h441.088c17.28 0 31.296-14.016 31.296-31.296v-199.552c0-17.28-14.016-31.296-31.296-31.296s-31.296 14.016-31.296 31.296V833.344H582.592V355.2h378.432v62.592c0 17.28 14.016 31.296 31.296 31.296s31.296-14.016 31.296-31.296v-93.888c0.064-17.28-13.952-31.296-31.296-31.296zM469.504 290.624H31.296C14.016 290.624 0 304.64 0 321.984v230.72C0 569.984 14.016 584 31.296 584h438.208c17.28 0 31.296-14.016 31.296-31.296v-230.72c0-17.344-14.016-31.36-31.296-31.36zM62.656 353.28h375.552V521.344H62.656V353.28zM469.824 602.624H31.68C14.4 602.624 0.384 616.64 0.384 633.92V864.64C0.32 881.984 14.336 896 31.68 896h438.208c17.28 0 31.296-14.016 31.296-31.296v-230.72c0-17.344-14.016-31.36-31.36-31.36zM62.976 665.28h375.552V833.344H62.976V665.28z"  horiz-adv-x="1024" />

    
    <glyph glyph-name="715bianjiqi_niantie" unicode="&#59004;" d="M631.156 674.846h-95.679v47.84c0 26.314-21.535 47.84-47.84 47.84H391.96c-26.303 0-47.84-21.526-47.84-47.84v-47.84h-95.68v-108.982h382.716V674.846z m-143.517 0h-95.68v47.747l0.095 0.093h95.515c0.024-0.024 0.07-0.047 0.094-0.093l-0.024-47.747z m239.196-185.73v161.81c0 13.152-10.766 23.92-23.92 23.92h-47.839v-47.84h23.92v-137.89h-273.99V117.4H200.6V627.007h23.92v47.84h-47.84c-13.151 0-23.92-10.77-23.92-23.92V93.48c0-13.151 10.769-23.92 23.92-23.92h228.325v-64.468h326.179L870.355 137.1V489.116h-143.52z m5.117-416.376v62.568h70.754l-70.754-62.568z m90.563 110.408H684.112v-130.216H452.845V441.276h369.67v-258.128zM515.267 338.69H760.86v-48.095H515.267V338.69zM515.267 203.614h124.528v-48.096H515.267v48.096z"  horiz-adv-x="1024" />

    
    <glyph glyph-name="716bianjiqi_zitiyanse" unicode="&#59005;" d="M647.622 177.866l140.413-165.641 140.997 165.641zM285.244 400.675l80.684 260.163 80.88-260.163H285.245m153.382 359.967H315.664L131.686 177.866h85.248l43.525 138.7H473.61l44.235-138.7H624.62L438.626 760.642M94.967 118.858H661.34v-75.209H94.967v75.21z"  horiz-adv-x="1024" />

    
    <glyph glyph-name="717bianjiqi_zitibeijingyanse" unicode="&#59006;" d="M260.376 278.259c-9.641-9.362-14.46-22.46-14.46-39.31 0-14.791 5.24-26.861 15.726-36.223 10.479-9.36 24.331-14.037 41.557-14.037 23.961 0 43.705 8.422 59.245 25.27s23.309 37.999 23.309 63.455v29.77l-72.727-9.827c-25.462-3.373-43.008-9.737-52.65-19.098zM829.005 803.08H190.046c-70.58 0-127.791-57.212-127.791-127.792v-575.063c0-70.58 57.212-127.792 127.791-127.792h638.959c70.58 0 127.791 57.212 127.791 127.792V675.289c0.001 70.58-57.212 127.792-127.791 127.792z m-388.78-651.739h-54.472v48.019h-1.406C362.82 162.48 331.09 144.04 289.16 144.04c-30.146 0-54.1 8.146-71.883 24.433-17.789 16.281-26.677 38.28-26.677 65.985 0 58.024 34.35 91.818 103.051 101.365l92.1 12.919c0 50.727-20.971 76.094-62.9 76.094-37.251 0-71.231-12.543-101.926-37.628V440.28c30.887 19.277 66.547 28.92 106.98 28.92 74.873 0 112.316-39.31 112.316-117.934v-199.924z m344.392 39.17c-25.737-30.983-60.044-46.472-102.91-46.472-40.434 0-71.226 17.035-92.382 51.104H588.2v-43.8h-55.033V610.996H588.2v-202.73h1.125c24.331 40.62 59.902 60.931 106.7 60.931 38.938 0 69.87-13.712 92.803-41.135 22.932-27.425 34.401-64.912 34.401-112.458 0-52.412-12.875-94.111-38.612-125.094z m-103.754 233.2c-26.95 0-49.187-9.642-66.688-28.92-17.5-19.284-26.249-43.807-26.249-73.57v-42.12c0-25.085 8.14-46.286 24.428-63.596 16.287-17.322 36.688-25.973 61.212-25.973 29.2 0 52.037 11.227 68.515 33.692 16.466 22.466 24.709 53.533 24.709 93.225 0 32.752-7.68 58.822-23.029 78.202-15.347 19.373-36.318 29.06-62.898 29.06z"  horiz-adv-x="1024" />

    
    <glyph glyph-name="718bianjiqi_youxuliebiao" unicode="&#59007;" d="M256 810.667C256 857.795 294.085 896 341.124 896h597.752C985.89 896 1024 858.124 1024 810.667c0-47.129-38.085-85.334-85.124-85.334H341.124C294.11 725.333 256 763.21 256 810.667zM85.333 896h85.334v-85.333H85.333V896zM256 384c0 47.128 38.085 85.333 85.124 85.333h597.752c47.013 0 85.124-37.876 85.124-85.333 0-47.128-38.085-85.333-85.124-85.333H341.124C294.11 298.667 256 336.543 256 384z m0-426.667c0 47.129 38.085 85.334 85.124 85.334h597.752c47.013 0 85.124-37.877 85.124-85.334 0-47.128-38.085-85.333-85.124-85.333H341.124C294.11-128 256-90.124 256-42.667zM0 896h85.333v-85.333H0V896z m85.333-170.667h85.334V640H85.333v85.333z m0 85.334h85.334v-85.334H85.333V810.667zM0 554.667h85.333v-85.334H0v85.334z m85.333 0h85.334v-85.334H85.333v85.334z m0-85.334h85.334V384H85.333v85.333zM0 384h85.333v-85.333H0V384z m0-85.333h85.333v-85.334H0v85.334z m85.333 0h85.334v-85.334H85.333v85.334zM0 128h85.333v-85.333H0V128z m85.333 0h85.334v-85.333H85.333V128z m0-85.333h85.334v-85.334H85.333v85.334z m0-85.334h85.334V-128H85.333v85.333z m-85.333 0h85.333V-128H0v85.333z"  horiz-adv-x="1024" />

    
    <glyph glyph-name="719bianjiqi_wuxuliebiao" unicode="&#59008;" d="M255.999 810.668C255.999 857.795 294.084 896 341.124 896h597.749c47.015 0 85.125-37.877 85.125-85.332 0-47.13-38.085-85.335-85.125-85.335H341.124c-47.015 0-85.125 37.877-85.125 85.335z m0-426.667c0 47.127 38.085 85.332 85.125 85.332h597.749c47.015 0 85.125-37.875 85.125-85.332 0-47.13-38.085-85.33-85.125-85.33H341.124c-47.015 0.001-85.125 37.871-85.125 85.33z m0-426.668c0 47.13 38.085 85.34 85.125 85.34h597.749c47.015 0 85.125-37.88 85.125-85.34 0-47.125-38.085-85.33-85.125-85.33H341.124c-47.015 0-85.125 37.88-85.125 85.33zM0 385.709c0 47.127 38.085 85.332 85.125 85.332h9.595c47.015 0 85.125-37.877 85.125-85.332 0-47.127-38.085-85.337-85.125-85.337h-9.595C38.11 300.372 0 338.252 0 385.709z m0 0c0 47.127 38.085 85.332 85.125 85.332h9.595c47.015 0 85.125-37.877 85.125-85.332 0-47.127-38.085-85.337-85.125-85.337h-9.595C38.11 300.372 0 338.252 0 385.709zM0 810.668C0 857.795 38.085 896 85.125 896h9.595c47.015 0 85.125-37.877 85.125-85.332 0-47.127-38.085-85.337-85.125-85.337h-9.595C38.11 725.331 0 763.21 0 810.668z m0-853.326c0 47.125 38.085 85.33 85.125 85.33h9.595c47.015 0 85.125-37.88 85.125-85.33 0-47.13-38.085-85.34-85.125-85.34h-9.595C38.11-127.997 0-90.117 0-42.658z"  horiz-adv-x="1024" />

    
    <glyph glyph-name="721bianjiqi_qingkongwendang" unicode="&#59009;" d="M893.488 627.261c-0.265 0.69-0.6 1.36-1 1.987l-0.29 0.452-0.17 0.38c-0.14 0.135-1.65 1.465-1.65 1.465l-0.11 0.238L625.573 886.26s-0.575 0.607-0.71 0.732c-0.245 0.172-0.535 0.347-0.955 0.602-0.64 0.407-1.31 0.742-2 0.997l-0.14 0.057-0.23-0.005-1.39 0.532a13.58 13.58 0 0 1-0.87 0.302 10.23 10.23 0 0 1-2.19 0.31c-0.02 0-1.35-0.515-1.35-0.515H195.787c-36.222 0-65.69-29.47-65.69-65.692v-879.695c0-36.215 29.467-65.675 65.69-65.675h632.651c35.915 0 65.13 29.47 65.13 65.675V621.556l0.13 0.712c0.345 1.768 0.235 3.6-0.21 4.993z m-87.68 7.58h-132.97c-24.63 0-43.925 19.547-43.925 44.485V807.168m207.61-832.566c0-24.94-19.285-44.47-43.915-44.47H226.509c-24.527 0-44.48 19.95-44.48 44.47V792.858c0 24.532 19.96 44.485 44.48 44.485h345.369v-193.852c0-36.222 34.33-65.682 70.235-65.682h194.41v-603.207zM606.763 393.346l102.4 59.09 48.74-60.065-76.61-84.885-74.53 85.86z m-77.914 32.24c29.935-3.675 175.705-181.22 171.96-201.174-3.74-19.96-85.1-75.175-85.1-75.175l-184.58 212.279c-0.003 0 67.78 67.745 97.72 64.07z m-115.39-90.164l178.215-207.449-109.367-142.2-246.93 312.734s48.947 2.025 89.722 12.755c26.69 7.02 88.36 24.16 88.36 24.16z"  horiz-adv-x="1024" />

    
    <glyph glyph-name="720bianjiqi_quanxuan" unicode="&#59010;" d="M465.506 322.383c-13.744 0-26.662 5.35-36.37 15.062L228.17 538.429c-7.179 7.174-11.134 16.723-11.134 26.87 0 10.135 3.955 19.684 11.134 26.878 7.188 7.174 16.733 11.124 26.879 11.124 10.14 0 19.679-3.95 26.863-11.124l183.6-183.6L856.17 799.239c7.19 7.174 16.734 11.134 26.88 11.134s19.69-3.961 26.879-11.134c14.802-14.823 14.802-38.924 0-53.748L501.88 337.445c-9.712-9.713-22.63-15.062-36.374-15.062zM128.04 79.186c-16.473 0-31.964 6.413-43.607 18.057-11.654 11.654-18.074 27.14-18.074 43.613V766.608c0 16.462 6.425 31.948 18.08 43.602C96.086 821.854 111.566 828.28 128.04 828.28h433.79c20.955 0 38.009-17.049 38.009-38.003s-17.054-38.014-38.008-38.014H142.38v-597.059h570.863V430.477c0 21.182 17.238 38.426 38.427 38.426s38.43-17.244 38.43-38.426v-289.62c0-16.474-6.423-31.959-18.078-43.614-11.638-11.644-27.129-18.057-43.607-18.057H128.04zM319.99-64.957c-20.953 0-38.002 17.048-38.002 38.002s17.043 38.003 37.992 38.003l563.517 0.38V502.77c0 20.954 17.048 38.014 38.003 38.014 10.32 0 19.966-3.961 27.156-11.145 7.179-7.205 11.128-16.755 11.123-26.902l-0.52-512.817c-0.038-30.027-24.498-54.486-54.53-54.519l-584.738-0.358z"  horiz-adv-x="1024" />

    
    <glyph glyph-name="723bianjiqi_duanhouju" unicode="&#59011;" d="M667.548 463.746c-70.135 0.01-499.009-0.12-569.146 0.095-19.487 0.055-32.44 9.535-37.515 26.015-4.96 16.125-0.128 33.43 14.287 41.985 7.767 4.615 17.917 7.285 27.005 7.315 137.62 0.445 633.973 0.43 771.588 0.205 22.575-0.04 35.745-9.035 41.225-25.865 5.365-16.46 1.25-33.125-13.44-42.14-8.005-4.91-18.805-7.22-28.375-7.305-68.539-0.595-137.084-0.32-205.629-0.305z m-0.24 383.534c69.615 0 203.919 0.207 273.539-0.1 29.92-0.132 48.3-25.262 38.46-51.455-5.86-15.582-19.48-24.447-38.985-24.515-47.3-0.178-159.28-0.07-206.574-0.07-91.41 0.002-541.559-0.128-632.971 0.09-29.54 0.07-47.992 23.262-39.92 49.195 5.415 17.405 19.117 26.77 40.447 26.812 69.086 0.128 496.914 0.048 566.004 0.043z m-19.25-229.799c-63.815 0-486.369-0.17-550.184 0.11-18.527 0.08-31.1 9.375-36.627 25.255-5.32 15.285-1.575 32.38 11.915 41.33 7.93 5.26 18.56 9 27.992 9.045 125.505 0.58 609.753 0.52 735.263 0.28 25.305-0.05 42.025-15.955 42.08-38.275 0.045-22.255-16.695-37.645-42.18-37.74-62.75-0.23-125.51-0.075-188.26-0.075l0.001 0.07z m-0.13-232.495c63.81-0.01 102.98 0.15 166.795-0.115 18.495-0.075 31.585-9.545 36.87-24.95 5.24-15.305 1.475-32.49-11.73-41.51-7.425-5.07-17.48-8.795-26.375-8.835-126.565-0.555-587.229-0.49-713.791-0.29-23.905 0.04-40.577 16.09-40.735 37.755-0.158 21.775 16.25 37.745 40.377 37.86 63.281 0.315 485.299 0.105 548.589 0.085zM662.958 91.039c0 19.681-15.949 35.63-35.63 35.63-10.511 0-19.87-4.639-26.388-11.879l-0.103 0.082-44.759-49.74V233.554c0 19.681-15.949 35.625-35.63 35.625-19.681 0-35.625-15.944-35.625-35.625v-168.422l-44.764 49.74-0.092-0.082c-6.528 7.24-15.888 11.879-26.394 11.879-19.681 0-35.625-15.949-35.625-35.63 0-9.16 3.559-17.429 9.232-23.752l-0.098-0.082 106.88-118.758 0.092 0.082c6.528-7.23 15.888-11.869 26.4-11.869s19.85 4.64 26.398 11.869l0.092-0.082 106.88 118.758-0.092 0.082c5.678 6.323 9.226 14.592 9.226 23.752z"  horiz-adv-x="1024" />

    
    <glyph glyph-name="722bianjiqi_duanqianju" unicode="&#59012;" d="M667.548 91.267c-70.135 0.01-499.009-0.12-569.146 0.095-19.487 0.055-32.44 9.535-37.515 26.015-4.96 16.125-0.128 33.43 14.287 41.985 7.767 4.615 17.917 7.285 27.005 7.315 137.62 0.445 633.973 0.43 771.588 0.205 22.575-0.04 35.745-9.035 41.225-25.865 5.365-16.46 1.25-33.125-13.44-42.14-8.005-4.91-18.805-7.22-28.375-7.305-68.539-0.595-137.084-0.32-205.629-0.305z m-0.24 383.534c69.615 0 203.919 0.207 273.539-0.1 29.92-0.132 48.3-25.262 38.46-51.455-5.86-15.582-19.48-24.447-38.985-24.515-47.3-0.178-159.28-0.07-206.574-0.07-91.41 0.003-541.559-0.128-632.971 0.09-29.54 0.07-47.992 23.262-39.92 49.195 5.415 17.405 19.117 26.77 40.447 26.812 69.086 0.128 496.914 0.048 566.004 0.043z m-19.25-229.799c-63.815 0-486.369-0.17-550.184 0.11-18.527 0.08-31.1 9.375-36.627 25.255-5.32 15.285-1.575 32.38 11.915 41.33 7.93 5.26 18.56 9 27.992 9.045 125.505 0.58 609.753 0.52 735.263 0.28 25.305-0.05 42.025-15.955 42.08-38.275 0.045-22.255-16.695-37.645-42.18-37.74-62.75-0.23-125.51-0.075-188.26-0.075l0.001 0.07z m-0.13-232.495c63.81-0.01 102.98 0.15 166.795-0.115 18.495-0.075 31.585-9.545 36.87-24.95 5.24-15.305 1.475-32.49-11.73-41.51-7.425-5.07-17.48-8.795-26.375-8.835-126.565-0.555-587.229-0.49-713.791-0.29-23.905 0.04-40.577 16.09-40.735 37.755-0.158 21.775 16.25 37.745 40.377 37.86 63.281 0.315 485.299 0.105 548.589 0.085zM653.732 715.023l0.092 0.082L546.944 833.86l-0.092-0.082c-6.549 7.234-15.893 11.873-26.399 11.873s-19.865-4.639-26.399-11.873l-0.092 0.082-106.88-118.754 0.098-0.082c-5.673-6.318-9.232-14.587-9.232-23.751 0-19.682 15.944-35.625 35.625-35.625 10.506 0 19.866 4.638 26.394 11.873l0.092-0.082 44.764 49.74v-168.411c0-19.682 15.944-35.625 35.625-35.625 19.681 0 35.63 15.949 35.63 35.625V717.179l44.76-49.74 0.102 0.081c6.517-7.235 15.882-11.873 26.388-11.873 19.681 0 35.63 15.943 35.63 35.625 0 9.164-3.548 17.428-9.226 23.751z"  horiz-adv-x="1024" />

    
    <glyph glyph-name="724bianjiqi_hangjianju" unicode="&#59013;" d="M288.343 627.707c7.731-8.581 18.96-13.988 31.427-13.988 23.347 0 42.27 18.918 42.27 42.266 0 10.88-4.116 20.782-10.844 28.277L224.394 825.155c-7.731 8.586-18.96 13.993-31.426 13.993-12.473 0-23.685-5.407-31.422-13.993L34.744 684.262c-6.732-7.495-10.849-17.397-10.849-28.277 0-23.348 18.918-42.266 42.266-42.266 12.472 0 23.685 5.407 31.421 13.988l53.12 59.018v-596.88l-53.12 59.014c-7.731 8.591-18.949 13.993-31.421 13.993-23.348 0-42.266-18.919-42.266-42.276 0-10.865 4.117-20.777 10.85-28.268L161.55-48.594c7.732-8.596 18.95-13.988 31.422-13.988 12.467 0 23.69 5.397 31.426 13.988l126.807 140.902c6.728 7.496 10.845 17.403 10.845 28.268 0 23.357-18.924 42.276-42.271 42.276-12.467 0-23.69-5.407-31.427-13.993l-53.11-59.013v596.88l53.1-59.02zM757.98 449.229c42.358 0.153 70.19 25.738 70.108 62.735-0.092 37.105-27.878 63.544-69.95 63.632-208.64 0.399-99.829 0.501-308.464-0.466-15.682-0.077-33.351-6.293-46.53-15.038-22.426-14.879-28.652-43.3-19.81-68.71 9.19-26.394 30.086-41.851 60.887-41.98 106.077-0.465 48.323-0.178 154.41-0.178v-0.118c104.31-0.005 55.04-0.256 159.35 0.123zM820.23 319.36c-228.762 0.369-140.079 0.4-368.85-0.338-15.11-0.051-31.98-4.49-44.898-12.16-23.962-14.218-31.995-42.987-23.747-69.79 8.433-27.403 29.968-43.162 62.362-43.25 116.587-0.358 69.335-0.138 185.928-0.158 113.94-0.02 74.29-0.481 188.221 0.512 15.908 0.138 33.859 3.978 47.17 12.14 24.423 14.99 31.258 42.69 22.34 70.051-9.104 27.97-30.997 42.921-68.527 42.993zM931.738 831.058c-115.733 0.512-185.39 0.164-301.113 0.164-114.852 0.01-65.858 0.138-180.705-0.072-35.456-0.072-58.235-15.642-67.236-44.57-13.42-43.11 17.255-81.664 66.36-81.781 151.962-0.359 140.068-0.144 292.02-0.149 78.617 0 111.17-0.179 189.798 0.113 32.42 0.113 55.06 14.848 64.799 40.755 16.368 43.546-14.183 85.32-63.923 85.54zM722.079 62.551c-106.082 0.44-17.603 0.169-123.669 0.19-105.2 0.03-46.561 0.378-151.751-0.139-40.105-0.19-67.385-26.742-67.119-62.94 0.267-36.009 27.981-62.69 67.718-62.76 210.386-0.329 62.377-0.441 272.768 0.48 14.791 0.072 31.508 6.262 43.847 14.69 21.95 14.991 28.211 43.56 19.502 69.002-8.796 25.605-30.556 41.344-61.296 41.477z"  horiz-adv-x="1024" />

    
    <glyph glyph-name="725bianjiqi_biaoti" unicode="&#59014;" d="M49.322 895.998v-313.185l41.176 1.304c14.118 114.315 106.899 192.294 159.68 205.234 52.814 13.033 171.505-17.47 171.505-17.47v-775.753c0-45.49-80.12-65.598-80.12-65.598l-82.355-1.305-1.305-57.22H771.7V-72.17h-94.022c-42.45 3.847-100.848 68.297-100.848 68.297V771.878s98.272 34.444 190.958 17.564c92.686-16.912 171.256-210.509 171.256-210.509h41.175V896H49.315l0.007-0.001z"  horiz-adv-x="1025" />

    
    <glyph glyph-name="727bianjiqi_ziti" unicode="&#59015;" d="M435.008 896L32-128h126.208l108.928 286.848H737.6L846.592-128h127.68L571.2 896H435.008z m65.984-126.208h5.696l193.6-512.064H304.512l196.48 512.064z"  horiz-adv-x="1024" />

    
    <glyph glyph-name="726bianjiqi_duanla" unicode="&#59016;" d="M512.621 193.396c-116.589 0.019-233.178-0.193-349.766 0.159-32.394 0.098-53.927 15.853-62.362 43.253-8.248 26.797-0.212 55.566 23.746 69.788 12.917 7.669 29.787 12.112 44.896 12.161 228.764 0.746 457.527 0.712 686.29 0.337 37.524-0.062 59.414-15.016 68.528-42.992 8.917-27.359 2.082-55.065-22.342-70.053-13.308-8.161-31.264-12.002-47.171-12.14-113.925-0.991-227.874-0.529-341.819-0.513zM512.217 830.963c115.729-0.006 231.469 0.342 347.192-0.169 49.744-0.22 80.292-41.991 63.932-85.535-9.741-25.904-32.379-40.637-64.803-40.755-78.626-0.291-157.252-0.112-235.877-0.112-151.951 0.003-303.902-0.215-455.858 0.147-49.108 0.117-79.781 38.671-66.362 81.782 9.005 28.932 31.781 44.5 67.237 44.567 114.843 0.214 229.691 0.079 344.539 0.075zM480.223 448.961c-106.086 0-212.167-0.286-318.249 0.176-30.797 0.134-51.693 15.587-60.884 41.986-8.845 25.406-2.617 53.828 19.807 68.704 13.181 8.741 30.85 14.961 46.533 15.037 208.629 0.968 417.264 0.865 625.902 0.463 42.071-0.083 69.863-26.523 69.948-63.625 0.082-36.997-27.752-62.585-70.104-62.738-104.319-0.378-208.64-0.125-312.954-0.125l0.001 0.122zM480 62.482c106.071-0.026 212.151 0.248 318.234-0.198 30.74-0.129 52.497-15.864 61.284-41.479 8.715-25.436 2.456-54.011-19.493-68.994-12.346-8.43-29.067-14.621-43.854-14.689-210.385-0.927-420.781-0.813-631.166-0.48-39.735 0.062-67.45 26.744-67.714 62.755-0.264 36.206 27.011 62.75 67.118 62.946 105.195 0.512 210.391 0.17 315.591 0.139z"  horiz-adv-x="1024" />

    
    <glyph glyph-name="731bianjiqi_shouhangsuojin" unicode="&#59017;" d="M261.438 896.001h756.65v-252.216h-756.65V896zM9.222 510.11h1008.867v-252.217H9.222V510.11zM9.222 124.218h1008.867v-252.217H9.222V124.218zM5.911 896.001l226.995-126.108L5.911 643.785z"  horiz-adv-x="1024" />

    
    <glyph glyph-name="728bianjiqi_zitidaxiao" unicode="&#59018;" d="M296.152 308.018l89.392 288.243 89.61-288.243H296.151m169.934 398.82h-136.23l-203.84-645.676h94.45l48.225 153.667h236.155l49.014-153.667h118.296L466.086 706.84m214.128-496.062l51.859 137.725 51.88-137.725h-103.74m98.502 201.847h-78.918L636.415 241.59l27.467-86.184 0.395 1.244h136.826l28.466-88.906h68.412L778.715 412.624"  horiz-adv-x="1024" />

    
    <glyph glyph-name="730bianjiqi_congyoukaishuru" unicode="&#59019;" d="M593.992 604.995v89.948h240.071v-89.948h-72.617V169h72.617v-84.833H593.992V169h71.398V604.995zM78.413 47.744h775.874c23.926 0 43.32 19.4 43.32 43.325V685.496c0 23.926-19.394 43.32-43.32 43.32H78.413c-62.295 0-51.2 59.126-51.2 59.126 0 28.278 22.927 51.2 51.2 51.2h873.81c28.277 0 51.2-22.922 51.2-51.2v-799.324c0-28.272-22.923-51.2-51.2-51.2H78.413c-28.273 0-51.2 22.928-51.2 51.2 0 0-0.763 59.126 51.2 59.126z"  horiz-adv-x="1024" />

    
    <glyph glyph-name="729bianjiqi_congzuokaishuru" unicode="&#59020;" d="M446.131 604.995v89.948H206.054v-89.948h72.617V169h-72.617v-84.833h240.077V169h-71.403V604.995zM961.705 47.744H185.83c-23.925 0-43.32 19.4-43.32 43.325V685.496c0 23.926 19.395 43.32 43.32 43.32h775.875c62.295 0 51.2 59.126 51.2 59.126 0 28.278-22.927 51.2-51.2 51.2H87.895c-28.278 0-51.2-22.922-51.2-51.2v-799.324c0-28.272 22.922-51.2 51.2-51.2H961.71c28.273 0 51.2 22.928 51.2 51.2-0.005 0 0.758 59.126-51.205 59.126z"  horiz-adv-x="1024" />

    
    <glyph glyph-name="733bianjiqi_juzhongduiqi" unicode="&#59021;" d="M124.992 696.992q-26.016 0-44 18.496T62.976 760t18.016 44 44 18.016h750.016q26.016 0 44-18.016t18.016-44-18.016-44.512-44-18.496H124.992zM750.016 572q26.016 0 44-18.016t18.016-44-18.016-44.512-44-18.496h-500q-26.016 0-44 18.496T188 509.984t18.016 44 44 18.016h500z m124.992-248.992q26.016 0 44-18.496T937.024 260t-18.016-44-44-18.016H124.992q-26.016 0-44 18.016t-18.016 44 18.016 44.512 44 18.496h750.016zM750.016 72.992q26.016 0 44-18.496t18.016-44.512-18.016-44-44-18.016h-500q-26.016 0-44 18.016t-18.016 44 18.016 44.512 44 18.496h500z"  horiz-adv-x="1024" />

    
    <glyph glyph-name="732bianjiqi_zuoduiqi" unicode="&#59022;" d="M73.485 896h877.03c39.937 0 71.887-31.95 71.887-73.485 0-39.938-31.95-73.485-73.485-73.485H73.485C31.95 750.627 0 782.577 0 822.515 0 864.05 31.95 896 73.485 896zM73.485 603.657h584.687c39.937 0 73.485-31.95 73.485-73.485 0-39.938-31.95-73.486-73.485-73.486H73.485C33.548 456.686 0 488.636 0 530.172c0 41.535 31.95 73.485 73.485 73.485zM73.485 311.314h877.03c39.937 0 73.485-31.95 73.485-73.486 0-39.937-31.95-73.485-73.485-73.485H73.485C33.548 164.343 0 196.293 0 237.828s31.95 73.486 73.485 73.486zM73.485 18.97h584.687c39.937 0 73.485-31.95 73.485-73.485 0-39.937-31.95-73.485-73.485-73.485H73.485C31.95-126.402 0-94.452 0-52.917c0 39.937 31.95 71.887 73.485 71.887z"  horiz-adv-x="1024" />

    
    <glyph glyph-name="734bianjiqi_youduiqi" unicode="&#59023;" d="M223.819 194.172c-15.91 0.14-33.86 3.98-47.17 12.14-24.42 14.99-31.26 42.69-22.34 70.05 9.11 27.98 31 42.93 68.53 43 228.759 0.37 457.519 0.4 686.283-0.34 15.11-0.05 31.98-4.49 44.895-12.16 23.96-14.22 31.995-42.99 23.75-69.79-8.435-27.4-29.97-43.16-62.365-43.25-116.585-0.36-233.174-0.14-349.764-0.16-113.939-0.02-227.889-0.48-341.819 0.51zM910.583 831.153c35.455-0.07 58.23-15.64 67.235-44.57 13.42-43.11-17.255-81.665-66.36-81.78-151.96-0.36-303.909-0.145-455.859-0.15-78.62 0-264.769-0.18-343.399 0.115-32.42 0.115-55.06 14.85-64.8 40.755-16.36 43.54 14.19 85.315 63.93 85.535 115.73 0.51 338.989 0.165 454.709 0.165 114.849 0.01 229.699 0.14 344.544-0.07zM598.038 449.104c-104.31 0-208.639-0.255-312.949 0.125-42.36 0.155-70.19 25.74-70.11 62.735 0.09 37.105 27.88 63.545 69.95 63.63 208.639 0.4 417.269 0.5 625.898-0.465 15.685-0.075 33.355-6.295 46.535-15.035 22.425-14.88 28.65-43.3 19.805-68.71-9.19-26.395-30.085-41.85-60.885-41.98-106.08-0.465-212.164-0.18-318.244-0.18v-0.12z m315.81-386.502c40.11-0.19 67.385-26.74 67.12-62.94-0.265-36.01-27.98-62.69-67.715-62.76-210.384-0.33-379.819-0.44-590.203 0.48-14.79 0.07-31.51 6.26-43.85 14.69-21.95 14.99-28.21 43.56-19.5 69 8.79 25.61 30.55 41.35 61.29 41.48 106.08 0.44 171.2 0.17 277.269 0.19 105.199 0.03 210.394 0.38 315.589-0.14z"  horiz-adv-x="1024" />

    
    <glyph glyph-name="738bianjiqi_chaolianjie" unicode="&#59024;" d="M379.064 102.743c-20.447-20.383-53.6-20.383-74.113 0l-74.18 74.18c-20.447 20.51-20.447 53.666 0 74.177l95.916 95.853L416.734 437c-40.184 23.737-92.627 18.577-127.137-15.87l-132.94-133.004c-40.96-40.896-40.96-107.333 0-148.23L267.86 28.694c40.96-41.025 107.334-41.025 148.295 0l132.94 132.876c34.51 34.447 39.543 86.951 15.932 127.201L379.064 102.743z m488.292 525.445L756.152 739.392c-40.96 40.894-107.334 40.894-148.294 0l-132.94-133.007c-34.51-34.444-39.54-86.82-15.933-127.07L644.95 665.213c20.446 20.513 53.603 20.513 74.114 0l74.114-74.178c20.514-20.513 20.514-53.666 0-74.18l-185.9-185.898c40.187-23.609 92.628-18.576 127.135 15.997l132.943 132.877c40.958 41.024 40.958 107.333 0 148.357z m-497.514-367.8l18.51-18.575c15.353-15.351 40.25-15.351 55.603 0l210.217 210.28c15.414 15.353 15.414 40.25 0 55.603l-18.513 18.577c-15.353 15.35-40.25 15.35-55.604 0l-210.213-210.28c-15.416-15.354-15.416-40.25 0-55.604z m0 0"  horiz-adv-x="1024" />

    
    <glyph glyph-name="736bianjiqi_daxie" unicode="&#59025;" d="M583.772 0.2c-6.902 6.896-13.327 19.62-19.266 38.17L374.728 641.581h-80.256L107.197 38.37c-4.28-14.51-10.583-27.228-18.908-38.17-11.182-18.544-24.852-27.821-41.021-27.821H26.93v-34.96h176.932v34.96h-19.261c-4.521 0-9.81 2.073-15.878 6.24-6.067 4.163-9.451 8.5-10.168 13.021-2.14 6.42-3.21 10.225-3.21 11.413 0 1.899 2.498 13.199 7.49 33.889l37.812 113.792h178.36l38.17-126.992c1.9-8.084 2.857-13.91 2.857-17.48 0-9.512-3.451-16.885-10.348-22.113-9.042-7.848-20.69-11.77-34.96-11.77h-14.622v-34.96h283.233v34.96h-21.76c-14.27 0-26.88 9.277-37.806 27.822zM215.281 204.954l74.552 230.799 73.129-230.8H215.28zM940.918 268.34c0-3.365-2.268-8.32-6.81-14.874-4.536-6.554-10.588-9.836-18.15-9.836-10.256 0-15.38 9.923-15.38 29.758V443.832c0 33.956-9.33 61.061-27.992 81.316s-47.57 30.387-86.733 30.387c-32.107 0-59.381-5.13-81.817-15.38-22.441-10.255-36.434-32.359-41.979-66.314 0-17.818 2.934-31.647 8.827-41.477 5.878-9.836 13.276-15.596 22.19-17.275 29.916 0 46.392 11.683 49.418 35.051 0 8.571-0.512 16.553-1.52 23.957-1.004 7.388-1.51 13.527-1.51 18.406 2.687 12.268 16.47 18.406 41.348 18.406 13.45-0.844 22.313-6.896 26.599-18.155 4.29-11.264 6.43-26.476 6.43-45.635v-32.025c-16.64 0-41.39-4.793-74.25-14.372-32.87-9.58-57.702-28.58-74.511-56.986-8.909-16.809-13.363-36.475-13.363-58.997 0-23.363 5.043-44.253 15.13-62.654 10.086-18.411 25.292-29.88 45.634-34.422 44.882 0 78.669 18.32 101.36 54.969 1.849-8.745 8.49-19.712 19.922-32.907 11.428-13.199 31.6-19.793 60.514-19.793 27.397 3.363 48.076 21.934 62.023 55.726l-15.38 22.681z m-127.079 27.99c0-9.58-4.121-19.753-12.35-30.51-8.237-10.762-17.57-16.133-27.99-16.133-6.554 0-12.78 2.437-18.663 7.311-8.908 7.06-13.358 18.407-13.358 34.038 0 15.294 4.117 30.761 12.35 46.398 9.078 15.124 20.05 25.63 32.911 31.513 12.862 5.878 21.888 8.827 27.1 8.827v-81.444zM386.985 673.49l165.483-113.68s10.481-3.834 19.41-1.945c9.667 2.038 9.539 9.114 9.539 9.114v87.383h161.009s126.914-17.076 126.914-64.174c0 0-2.12 148.142-131.016 148.142H581.422V831.698s0.271 4.94-9.462 7.086c-8.156 1.797-15.98-3.722-15.98-3.722L391.476 718.28s-15.39-7.865-15.39-23.43c0-15.17 10.9-21.36 10.9-21.36z"  horiz-adv-x="1024" />

    
    <glyph glyph-name="735bianjiqi_liangduanduiqi" unicode="&#59026;" d="M905.462 831.15c35.46-0.072 58.23-15.642 67.24-44.57 13.42-43.11-17.259-81.664-66.36-81.781-151.961-0.359-303.907-0.144-455.859-0.149-78.617 0-264.77-0.179-343.398 0.113-32.42 0.113-55.06 14.848-64.799 40.755-16.358 43.54 14.188 85.315 63.928 85.535 115.733 0.512 338.99 0.164 454.713 0.164 114.841 0.015 229.693 0.143 344.535-0.067zM905.462 61.45c35.46-0.071 58.23-15.641 67.24-44.574 13.42-43.11-17.259-81.66-66.36-81.782-151.961-0.359-303.907-0.138-455.859-0.149-78.617 0-264.77-0.179-343.398 0.118-32.42 0.108-55.06 14.848-64.799 40.75-16.358 43.54 14.188 85.315 63.928 85.535 115.733 0.512 338.99 0.169 454.713 0.169 114.841 0.015 229.693 0.143 344.535-0.067zM905.462 322.56c35.46-0.072 58.23-15.642 67.24-44.57 13.42-43.11-17.259-81.658-66.36-81.781-151.961-0.359-303.907-0.139-455.859-0.149-78.617 0-264.77-0.179-343.398 0.118-32.42 0.107-55.06 14.848-64.799 40.75-16.358 43.54 14.188 85.32 63.928 85.54 115.733 0.512 338.99 0.159 454.713 0.159 114.841 0.015 229.693 0.143 344.535-0.067zM905.462 578.565c35.46-0.072 58.23-15.641 67.24-44.575 13.42-43.11-17.259-81.658-66.36-81.781-151.961-0.359-303.907-0.139-455.859-0.149-78.617 0-264.77-0.179-343.398 0.118-32.42 0.107-55.06 14.848-64.799 40.75-16.363 43.546 14.182 85.325 63.923 85.545 115.733 0.512 338.99 0.164 454.713 0.164 114.846 0.01 229.698 0.138 344.54-0.072z"  horiz-adv-x="1024" />

    
    <glyph glyph-name="737bianjiqi_xiaoxie" unicode="&#59027;" d="M583.772 0.2c-6.902 6.896-13.327 19.62-19.266 38.17L374.728 641.581h-80.256L107.197 38.37c-4.28-14.51-10.583-27.228-18.908-38.17-11.182-18.544-24.852-27.821-41.021-27.821H26.93v-34.96h176.932v34.96h-19.261c-4.521 0-9.81 2.073-15.878 6.24-6.067 4.163-9.451 8.5-10.168 13.021-2.14 6.42-3.21 10.225-3.21 11.413 0 1.899 2.498 13.199 7.49 33.889l37.812 113.792h178.36l38.17-126.992c1.9-8.084 2.857-13.91 2.857-17.48 0-9.512-3.451-16.885-10.348-22.113-9.042-7.848-20.69-11.77-34.96-11.77h-14.622v-34.96h283.233v34.96h-21.76c-14.27 0-26.88 9.277-37.806 27.822zM215.281 204.954l74.552 230.799 73.129-230.8H215.28zM940.918 268.34c0-3.365-2.268-8.32-6.81-14.874-4.536-6.554-10.588-9.836-18.15-9.836-10.256 0-15.38 9.923-15.38 29.758V443.832c0 33.956-9.33 61.061-27.992 81.316s-47.57 30.387-86.733 30.387c-32.107 0-59.381-5.13-81.817-15.38-22.441-10.255-36.434-32.359-41.979-66.314 0-17.818 2.934-31.647 8.827-41.477 5.878-9.836 13.276-15.596 22.19-17.275 29.916 0 46.392 11.683 49.418 35.051 0 8.571-0.512 16.553-1.52 23.957-1.004 7.388-1.51 13.527-1.51 18.406 2.687 12.268 16.47 18.406 41.348 18.406 13.45-0.844 22.313-6.896 26.599-18.155 4.29-11.264 6.43-26.476 6.43-45.635v-32.025c-16.64 0-41.39-4.793-74.25-14.372-32.87-9.58-57.702-28.58-74.511-56.986-8.909-16.809-13.363-36.475-13.363-58.997 0-23.363 5.043-44.253 15.13-62.654 10.086-18.411 25.292-29.88 45.634-34.422 44.882 0 78.669 18.32 101.36 54.969 1.849-8.745 8.49-19.712 19.922-32.907 11.428-13.199 31.6-19.793 60.514-19.793 27.397 3.363 48.076 21.934 62.023 55.726l-15.38 22.681z m-127.079 27.99c0-9.58-4.121-19.753-12.35-30.51-8.237-10.762-17.57-16.133-27.99-16.133-6.554 0-12.78 2.437-18.663 7.311-8.908 7.06-13.358 18.407-13.358 34.038 0 15.294 4.117 30.761 12.35 46.398 9.078 15.124 20.05 25.63 32.911 31.513 12.862 5.878 21.888 8.827 27.1 8.827v-81.444zM530.304 649.242h161.004v-87.383s-0.113-7.076 9.548-9.114c8.924-1.89 19.41 1.946 19.41 1.946L885.745 668.37s10.9 6.19 10.9 21.36c0 15.57-15.39 23.43-15.39 23.43L716.748 829.942s-7.824 5.52-15.98 3.722c-9.728-2.145-9.461-7.086-9.461-7.086v-93.368H534.4c-128.896 0-131.016-148.142-131.016-148.142 0.005 47.098 126.92 64.174 126.92 64.174z"  horiz-adv-x="1024" />

    
    <glyph glyph-name="740bianjiqi_maodian" unicode="&#59028;" d="M979.035 280.672l-71.459 71.458c-4.778 4.781-11.133 7.412-17.897 7.412-0.768 0-1.548-0.034-2.317-0.103-7.03 0.208-13.669-2.443-18.627-7.405l-73.155-73.156c-4.789-4.785-7.426-11.15-7.426-17.924 0-6.77 2.636-13.134 7.425-17.921 4.786-4.788 11.151-7.426 17.923-7.426 6.773 0 13.136 2.637 17.922 7.426l28.271 28.271c-6.858-81.979-42.685-159.126-101.085-217.529-59.196-59.195-137.562-95.153-220.784-101.33l-0.001 487.092 198.769 0.001c13.974 0 25.345 11.371 25.345 25.346s-11.373 25.346-25.349 25.346H537.824V772.248l178.004-178.004c4.787-4.787 11.152-7.424 17.922-7.424s13.136 2.637 17.923 7.424c4.788 4.787 7.426 11.153 7.426 17.923 0 6.771-2.637 13.136-7.426 17.923L531.899 849.864c-5.325 5.327-12.642 7.993-20.219 7.308-6.994 0.174-13.669-2.452-18.622-7.405L273.282 629.992c-9.883-9.884-9.882-25.965 0-35.845 4.788-4.788 11.153-7.425 17.923-7.425 6.771 0 13.135 2.636 17.923 7.425L487.13 772.149v-281.917H288.367c-13.977 0-25.348-11.371-25.348-25.346 0-13.977 11.371-25.348 25.346-25.348l198.766 0.001V-47.68c-83.916 5.794-162.921 41.796-222.581 101.455-58.91 58.911-94.799 136.758-101.258 219.493l28.438-28.439c4.786-4.787 11.152-7.425 17.923-7.425s13.136 2.637 17.924 7.425c4.786 4.788 7.424 11.153 7.424 17.923 0 6.773-2.637 13.138-7.425 17.922l-71.458 71.458c-4.778 4.781-11.13 7.414-17.884 7.414-0.778 0-1.562-0.036-2.334-0.106-7.031 0.165-13.682-2.463-18.625-7.405l-73.156-73.157c-4.787-4.786-7.424-11.152-7.424-17.923 0-6.769 2.636-13.133 7.424-17.921 4.787-4.788 11.152-7.426 17.923-7.426 6.772 0 13.138 2.637 17.923 7.426l30.426 30.426c2.98-44.62 13.302-88.067 30.691-129.179 20.253-47.884 49.243-90.885 86.163-127.805 36.917-36.919 79.918-65.91 127.805-86.164 49.595-20.976 102.257-31.611 156.526-31.611 54.268 0 106.931 10.635 156.525 31.611 47.885 20.253 90.885 49.243 127.805 86.164 36.919 36.917 65.909 79.918 86.164 127.806 17.617 41.647 27.978 85.659 30.81 130.853l30.306-30.306c4.785-4.787 11.151-7.425 17.924-7.425 6.771 0 13.135 2.637 17.923 7.424s7.425 11.151 7.425 17.924c0.002 6.772-2.635 13.136-7.422 17.922z"  horiz-adv-x="1024" />

    
    <glyph glyph-name="743bianjiqi_juzhongfudong" unicode="&#59029;" d="M917.765 826.03c35.456-0.072 58.23-15.642 67.236-44.57 13.42-43.11-17.254-81.664-66.36-81.781-151.957-0.359-303.903-0.144-455.86-0.149-78.617 0-264.77-0.179-343.398 0.113-32.42 0.113-55.06 14.848-64.799 40.755-16.358 43.54 14.188 85.315 63.929 85.535 115.732 0.512 338.99 0.164 454.712 0.164 114.847 0.015 229.693 0.143 344.54-0.067zM917.765 78.51c35.456-0.072 58.23-15.642 67.236-44.57 13.42-43.11-17.254-81.658-66.36-81.781-151.957-0.359-303.903-0.139-455.86-0.149-78.617 0-264.77-0.179-343.398 0.118-32.42 0.108-55.06 14.848-64.799 40.75-16.358 43.54 14.188 85.32 63.929 85.54 115.732 0.512 338.99 0.159 454.712 0.159 114.847 0.015 229.693 0.143 344.54-0.067zM300.268 652.14h437.76V345.6h-437.76V652.14zM917.76 293.55c35.456-0.072 58.23-15.642 67.236-44.57 13.42-43.11-17.255-81.658-66.36-81.781-151.957-0.359-303.898-0.139-455.855-0.149-78.617 0-264.77-0.179-343.398 0.118-32.42 0.108-55.06 14.848-64.799 40.75-16.358 43.54 14.188 85.32 63.929 85.54 115.732 0.512 338.99 0.159 454.712 0.159 114.842 0.015 229.688 0.143 344.535-0.067z"  horiz-adv-x="1024" />

    
    <glyph glyph-name="742bianjiqi_zuofudong" unicode="&#59030;" d="M457.953 831.222c115.728 0 338.985 0.343 454.718-0.164 49.74-0.22 80.292-41.994 63.928-85.535-9.738-25.907-32.379-40.642-64.799-40.755-78.628-0.297-264.78-0.113-343.398-0.113-151.957 0.005-303.903-0.21-455.86 0.149-49.105 0.112-79.78 38.671-66.36 81.782 9.006 28.928 31.785 44.498 67.236 44.57 114.842 0.204 229.689 0.076 344.535 0.066zM457.953 83.702c115.728 0 338.985 0.348 454.718-0.159 49.74-0.22 80.292-42 63.928-85.54-9.738-25.902-32.379-40.642-64.799-40.75-78.628-0.302-264.78-0.118-343.398-0.118-151.957 0.01-303.903-0.21-455.86 0.149-49.105 0.118-79.78 38.671-66.36 81.782 9.006 28.928 31.785 44.498 67.236 44.57 114.842 0.204 229.689 0.076 344.535 0.066zM719.073 585.462c115.728 0 77.865 0.348 193.598-0.159 49.74-0.22 80.292-42 63.928-85.54-9.738-25.902-32.379-40.642-64.799-40.75-78.628-0.302-70.22-0.118-148.838-0.118-151.957 0.01-17.183-0.21-169.14 0.149-49.11 0.118-79.78 38.671-66.36 81.782 9.001 28.928 31.78 44.498 67.236 44.57 114.842 0.204 9.534 0.076 124.375 0.066zM53.76 662.38h437.76v-526.7H53.76v526.7zM719.073 320.481c115.728 0 77.865 0.348 193.598-0.158 49.74-0.22 80.292-42 63.928-85.54-9.738-25.902-32.379-40.643-64.799-40.75-78.628-0.302-70.22-0.118-148.838-0.118-151.957 0.01-17.183-0.21-169.14 0.148-49.11 0.118-79.78 38.672-66.36 81.782 9.001 28.928 31.78 44.498 67.236 44.57 114.842 0.205 9.534 0.077 124.375 0.066z"  horiz-adv-x="1024" />

    
    <glyph glyph-name="745bianjiqi_tupianshangchuan" unicode="&#59031;" d="M921.6 745.6c30 0 54.4-24.4 54.4-54.4v-614.4c0-30-24.4-54.4-54.4-54.4H102.4c-30 0-54.4 24.4-54.4 54.4V691.2c0 30 24.4 54.4 54.4 54.4h819.2m0 48H102.4C45.856 793.6 0 747.744 0 691.2v-614.4c0-56.544 45.856-102.4 102.4-102.4h819.2c56.544 0 102.4 45.856 102.4 102.4V691.2c0 56.544-45.856 102.4-102.4 102.4zM270.224 585.68c0-47.12-38.208-85.328-85.328-85.328-47.12 0-85.328 38.208-85.328 85.328 0 47.136 38.208 85.328 85.328 85.328 47.12 0 85.328-38.192 85.328-85.328zM78.928 102.4H940.8L708.272 603.728 473.6 245.328 311.472 396.784z"  horiz-adv-x="1024" />

    
    <glyph glyph-name="739bianjiqi_qingchuchaolianjie" unicode="&#59032;" d="M596.13 532.449c-33.741-2.533-64.436-5.088-95.175-6.824-3.786-0.214-8.597 3.094-11.58 6.2-34.374 35.79-68.464 71.883-102.679 107.844-22.96 24.133-45.153 24.243-67.882 0.43-17.964-18.82-35.947-37.624-53.846-56.513-18.648-19.68-18.88-43.058-0.312-62.654 35.245-37.2 70.83-74.05 105.818-111.513 3.76-4.027 6.577-11.262 6.31-16.821-1.506-31.356-4.09-62.655-6.526-97.083-9.485 8.004-17.545 13.67-24.317 20.702-47.472 49.288-94.89 98.639-141.911 148.4-45.14 47.769-44.968 127.189 0.016 175.225 20.256 21.63 40.773 42.993 61.297 64.343 48.1 50.036 123.13 51.937 171.776 2.3 48.977-49.978 96.245-101.804 144.06-153.027 5.07-5.431 8.788-12.25 14.951-21.009z m58.742-61.098c9.195-7.83 17.16-13.515 23.883-20.515C725.6 402.06 772.469 353.302 818.78 303.97c47.85-50.97 47.142-127.85-1.165-178.303-23.238-24.268-45.9-49.278-70.5-71.948-44.458-40.97-114.805-38.045-156.738 5.577-48.803 50.768-97.186 101.983-145.589 153.175-5.659 5.986-10.278 13.054-16.834 21.494 23.147 2.092 44.222 2.14 64.537 6.29 27.021 5.518 45.678-3.478 63.596-25.081 25.837-31.15 54.918-59.346 82.764-88.647 20.378-21.443 44.175-21.72 64.926-0.712 17.976 18.198 35.811 36.555 53.417 55.148 20.789 21.953 20.82 46.954-0.107 69.13-34.345 36.393-69.138 72.325-103.286 108.92-3.767 4.037-6.698 11.261-6.382 16.777 1.757 30.623 4.64 61.174 7.452 95.561zM233.831 74.997c-12.824 0.137-19.212 10.857-14.858 20.113 1.34 2.848 3.629 5.306 5.81 7.6 33.081 34.797 66.194 69.56 99.387 104.24 2.44 2.55 5.432 5.986 8.368 6.218 4.947 0.392 11.737 0.261 14.62-2.848 2.845-3.07 2.687-10.202 2.148-15.357-0.326-3.108-3.605-6.143-6.045-8.699-32.607-34.13-65.245-68.227-98.043-102.154-3.963-4.1-8.909-7.158-11.387-9.113z m454.977 477.448c-11.813 0.285-18.235 9.377-14.822 18.104 1.843 4.712 5.361 8.975 8.873 12.653 32.053 33.57 64.246 66.993 96.485 100.366 2.727 2.823 6.071 6.949 9.165 6.984 5.18 0.058 11.655-1.29 15.146-4.752 2.343-2.325 1.32-9.544 0.206-14.149-0.773-3.197-4.1-5.84-6.56-8.445-31.893-33.74-63.76-67.509-95.856-101.033-4.214-4.4-9.674-7.486-12.637-9.728z m-56.163 112.058c-0.001-22.133-0.096-44.265 0.043-66.395 0.06-9.446-2.784-16.339-12.834-16.726-10.704-0.41-14.122 6.49-14.109 16.583 0.056 44.263-0.06 88.526 0.07 132.79 0.039 12.896 4.742 18.906 13.918 18.207 10.638-0.81 13.064-8.282 12.975-18.064-0.2-22.13-0.061-44.263-0.063-66.395zM243.552 257.319c-20.705 0-41.41-0.075-62.114 0.028-12.087 0.06-17.892 4.884-17.425 14.521 0.557 11.47 8.087 13.638 17.152 13.632 41.8-0.028 83.6 0.058 125.398-0.048 12.467-0.032 17.692-4.517 17.24-14.506-0.515-11.362-7.657-13.777-16.968-13.69-21.091 0.198-42.188 0.063-63.283 0.063zM418.16 103.58v-58.962c0-2.457 0.057-4.916-0.027-7.37-0.328-9.599-1.681-18.852-13.663-18.46-11.872 0.389-12.772 9.863-12.925 19.316-0.127 7.777-0.028 15.56-0.028 23.339 0 33.985-0.003 67.97 0.005 101.955 0.001 3.274-0.207 6.584 0.157 9.818 0.945 8.41 5.09 13.8 13.674 13.511 8.556-0.289 12.645-5.735 12.694-14.359 0.13-22.928 0.044-45.858 0.044-68.788h0.069zM781.5 510.276c20.683 0.001 41.367-0.045 62.05 0.022 9.382 0.031 16.432-3.102 16.461-14.324 0.028-10.954-7.512-13.5-15.954-13.529-42.537-0.151-85.075-0.139-127.613-0.008-8.886 0.028-16.916 2.5-16.595 14.117 0.317 11.424 8.416 13.62 17.26 13.677 21.462 0.135 42.927 0.044 64.391 0.045z"  horiz-adv-x="1024" />

    
    <glyph glyph-name="744bianjiqi_youfudong" unicode="&#59033;" d="M910.643 831.15c35.456-0.072 58.23-15.642 67.236-44.57 13.42-43.11-17.254-81.664-66.36-81.781-151.957-0.359-303.903-0.144-455.86-0.149-78.617 0-264.77-0.179-343.398 0.113-32.42 0.113-55.06 14.848-64.799 40.755-16.358 43.54 14.188 85.315 63.929 85.535 115.732 0.512 338.99 0.164 454.717 0.164 114.842 0.015 229.694 0.143 344.535-0.067zM910.643 83.63c35.456-0.072 58.23-15.642 67.236-44.57 13.42-43.11-17.254-81.658-66.36-81.781-151.957-0.359-303.903-0.139-455.86-0.149-78.617 0-264.77-0.179-343.398 0.118-32.42 0.108-55.06 14.848-64.799 40.75-16.358 43.54 14.188 85.32 63.929 85.54 115.732 0.512 338.99 0.159 454.717 0.159 114.842 0.015 229.694 0.143 344.535-0.067zM429.363 585.39c35.456-0.072 58.235-15.642 67.236-44.57 13.42-43.11-17.25-81.658-66.36-81.781-151.957-0.359-17.183-0.139-169.14-0.149-78.617 0-70.21-0.179-148.838 0.118-32.42 0.108-55.06 14.848-64.799 40.75-16.358 43.54 14.188 85.32 63.929 85.54 115.732 0.512 77.87 0.159 193.597 0.159 114.842 0.015 9.534 0.143 124.375-0.067zM532.541 662.38h437.76v-526.7h-437.76v526.7zM429.363 320.41c35.456-0.072 58.235-15.642 67.236-44.57 13.42-43.11-17.25-81.659-66.36-81.782-151.957-0.358-17.183-0.138-169.14-0.148-78.617 0-70.21-0.18-148.838 0.118-32.42 0.107-55.06 14.848-64.799 40.75-16.358 43.54 14.188 85.32 63.929 85.54 115.732 0.511 77.87 0.158 193.597 0.158 114.842 0.016 9.534 0.144 124.375-0.066z"  horiz-adv-x="1024" />

    
    <glyph glyph-name="746bianjiqi_biaoqing" unicode="&#59034;" d="M510.114-63.516c-119.434 0-231.73 46.511-316.157 130.903C109.5 151.893 63.011 264.178 63.033 383.654c0 119.463 46.52 231.77 130.992 316.233C278.463 784.32 390.748 830.833 510.192 830.833c119.485 0 231.76-46.513 316.241-130.938 174.337-174.404 174.315-458.092 0-632.42C741.932-16.97 629.6-63.516 510.114-63.516z m0.078 836.066c-103.89 0-201.53-40.436-274.975-113.867-73.457-73.423-113.914-171.117-113.914-275.029C121.29 279.73 161.717 182.048 235.15 108.6c73.436-73.398 171.105-113.88 274.964-113.88 103.924 0 201.626 40.502 275.106 113.969 151.614 151.598 151.614 398.341 0 549.99-73.467 73.436-171.126 113.871-275.028 113.871z m-158.9-510.936s52.39-83.75 158.81-83.75 176.208 83.75 176.208 83.75 39.555 0.132 39.546-41.873c0 0-68.598-97.706-215.754-97.706-147.171 0-195.06 97.706-195.06 97.706s-1.45 41.873 36.253 41.873h-0.003z m28.876 265.83c-30.155 0-54.763-24.526-54.763-54.77 0-30.204 24.607-54.738 54.763-54.738 30.292 0 54.764 24.534 54.764 54.738-0.001 30.244-24.472 54.77-54.764 54.77z m280.579 0c-30.2 0-54.725-24.526-54.725-54.77 0-30.204 24.526-54.738 54.725-54.738 30.258 0 54.77 24.534 54.77 54.738 0 30.244-24.512 54.77-54.77 54.77z m0 0"  horiz-adv-x="1024" />

    
    <glyph glyph-name="747bianjiqi_tuya" unicode="&#59035;" d="M953.87 518.413c-3.615 3.69-8.051 5.59-13.184 5.648-12.528 0.141-26.537-10.954-36.075-20.277L563.331 172.25c-12.513-12.241-58.579-87.06-60.533-90.24l-7.461-12.133 12.15 7.435c3.221 1.97 79.048 48.427 91.535 60.636l341.28 331.534c15.168 14.832 26.7 35.475 13.567 48.931zM740.87 415.298c0-27.64-22.433-50.07-50.07-50.07-27.643 0-50.075 22.43-50.075 50.07s22.432 50.072 50.075 50.072c27.637 0 50.07-22.433 50.07-50.072zM215.127 240.057c-27.64 0-50.07 22.426-50.07 50.066 0 27.64 22.43 50.073 50.07 50.073 27.639 0 50.071-22.433 50.071-50.073s-22.432-50.066-50.07-50.066zM290.234 415.298c0 27.64 22.433 50.072 50.069 50.072 27.64 0 50.072-22.433 50.072-50.072s-22.431-50.07-50.072-50.07c-27.637 0-50.07 22.407-50.07 50.07zM465.481 465.37c0 27.639 22.43 50.069 50.07 50.069s50.073-22.43 50.073-50.069c0-27.64-22.433-50.072-50.074-50.072-27.64 0-50.069 22.408-50.069 50.072zM852.743 295.563C829.73 146.435 693.84-4.703 500.416-4.703c-36.82 0-76.081 7.283-107.714 19.98-33.644 13.506-48.903 29.385-51.963 39.737-1.596 5.403-3.097 11.309-4.686 17.56-4.655 18.321-9.932 39.087-20.273 56.32-18.394 30.65-44.862 37.084-63.828 37.084-7.175 0-14.815-0.914-22.7-2.714-12.88-2.94-25.39-4.43-37.182-4.43-25.15 0-67.536 6.674-68.839 51.364-6.597 228.189 180.929 352.126 369.696 373.728 13.351 1.526 27.633 2.299 42.449 2.299 53.181 0 111.664-10.011 152.628-26.127 9.257-3.642 14.39-6.023 39.246-18.204 25.68-12.585 46.398-30.465 62.965-47.694l30.19 53.133c-18.046 17.03-40.377 34.443-67.175 47.576-24.917 12.21-31.928 15.531-43.613 20.127-47.39 18.645-114.156 30.226-174.241 30.226-17.045 0-33.58-0.901-49.155-2.68-115.638-13.234-220.925-59.122-296.463-129.215-85.6-79.428-129.01-184.853-125.54-304.883 1.006-34.508 15.134-63.085 40.855-82.646 22.404-17.037 52.487-26.042 86.997-26.042 16.204 0 33.133 1.987 50.322 5.91 3.586 0.818 6.802 1.234 9.559 1.234 11.481 0 17.01-10.055 26.881-48.906 1.656-6.516 3.369-13.256 5.287-19.752 9.445-31.945 39.385-58.847 86.59-77.795 38.36-15.398 85.636-24.23 129.706-24.23 54.162 0 106.59 10.147 155.828 30.156 46.291 18.814 88.597 45.814 125.742 80.252 35.782 33.176 65.34 71.869 87.851 115.007 22.55 43.21 36.927 88.763 42.738 135.416 0.262 2.12 0.508 4.326 0.732 6.554l0.149 1.471v0.059c0.222 2.338 0.405 4.7 0.572 7.072l-61.284-16.681z"  horiz-adv-x="1024" />

    
    <glyph glyph-name="741bianjiqi_moren" unicode="&#59036;" d="M112.538 704.804c151.956-0.359 303.902-0.144 455.859-0.149 78.617 0 264.77-0.179 343.398 0.113 32.42 0.113 55.06 14.848 64.799 40.755 16.358 43.54-14.188 85.315-63.928 85.535-115.733 0.512-338.99 0.164-454.718 0.164-114.847 0.01-229.698 0.138-344.54-0.072-35.456-0.072-58.235-15.642-67.236-44.57-13.414-43.11 17.26-81.664 66.366-81.776zM912.67 334.418c-115.732 0.512-338.99 0.159-454.717 0.159-114.846 0.01-229.698 0.138-344.54-0.072-35.456-0.072-58.235-15.642-67.236-44.57-13.42-43.11 17.255-81.659 66.36-81.781 151.957-0.359 303.903-0.139 455.86-0.149 78.617 0 264.77-0.18 343.398 0.118 32.42 0.107 55.06 14.848 64.799 40.75 16.369 43.546-14.182 85.325-63.923 85.545zM912.67 83.538c-115.732 0.512-338.99 0.159-454.717 0.159-114.846 0.01-229.698 0.138-344.54-0.072-35.456-0.072-58.235-15.642-67.236-44.57-13.42-43.11 17.255-81.659 66.36-81.781 151.957-0.359 303.903-0.139 455.86-0.149 78.617 0 264.77-0.18 343.398 0.118 32.42 0.107 55.06 14.848 64.799 40.75 16.369 43.546-14.182 85.325-63.923 85.545zM912.67 585.298c-115.732 0.512-77.87 0.159-193.597 0.159-114.846 0.01-9.533 0.138-124.38-0.072-35.456-0.072-58.235-15.642-67.236-44.57-13.42-43.11 17.25-81.659 66.36-81.781 151.957-0.359 17.183-0.139 169.14-0.149 78.617 0 70.21-0.18 148.838 0.118 32.42 0.107 55.06 14.848 64.799 40.75 16.369 43.546-14.182 85.325-63.923 85.545zM53.76 662.38h437.76v-273.26H53.76V662.38z"  horiz-adv-x="1024" />

    
    <glyph glyph-name="749bianjiqi_yinpin" unicode="&#59037;" d="M849.25 889.305L411.687 755.436c-53.011-15.123-95.98-70.42-95.98-123.431v-461.548s-31.705 21.385-102.321 11.382C109.686 167.109 25.6 87.513 25.6 4.017s84.086-134.656 187.786-119.926c103.778 14.651 179.83 91.806 179.83 175.34V453.514c0 37.022 44.505 52.893 44.505 52.893l386.875 121.266s42.81 14.375 42.81-25.246v-316.534s-39.423 22.685-110.04 14.1c-103.7-12.564-187.786-90.506-187.786-173.962 0-83.535 84.086-136.39 187.786-123.786 103.779 12.564 187.865 90.466 187.865 174.001V820.696c0 53.012-43.008 83.732-95.98 68.609z"  horiz-adv-x="1024" />

    
    <glyph glyph-name="748bianjiqi_shipin" unicode="&#59038;" d="M984.615 856.615h-39.384v-78.769H827.077v78.77H196.923v-78.77H78.77v78.77H39.385C17.684 856.615 0 838.931 0 817.23v-866.462c0-21.7 17.684-39.384 39.385-39.384h39.384v39.384h118.154v-39.384h630.154v39.384H945.23v-39.384h39.384c21.701 0 39.385 17.683 39.385 39.384V817.231c0 21.7-17.684 39.384-39.385 39.384zM196.923 68.923H78.77V187.077h118.154v-118.154z m0 236.308H78.77V423.385h118.154V305.23z m0 236.307H78.77V659.692h118.154v-118.154z m495.774-183.374L436.578 208.778c-4.174-2.088-8.743-3.072-13.272-3.072-5.435 0-10.713 1.457-15.518 4.293-8.664 5.238-13.942 14.611-13.942 24.615V533.346c0 10.044 5.278 19.417 13.942 24.655 8.744 5.278 19.653 5.75 28.751 1.182l256.118-149.347c9.965-4.923 16.266-14.887 16.266-25.836s-6.301-20.913-16.226-25.836z m252.534-289.24H827.077V187.076H945.23v-118.154z m0 236.307H827.077V423.385H945.23V305.23z m0 236.307H827.077V659.692H945.23v-118.154z"  horiz-adv-x="1024" />

    
    <glyph glyph-name="761bianjiqi_teshuzifu" unicode="&#59039;" d="M218.5 132.4h140.6C270 206.8 225.5 297.6 225.5 404.9c0 58.3 11.7 110.6 35.2 156.9 23.4 46.3 56.5 82.8 99.3 109.6 42.8 26.8 94.2 40.2 154.2 40.2 59.5 0 109.1-12.3 148.8-36.9 39.7-24.6 72.4-59.9 98-105.9 25.6-46 38.5-100.6 38.5-163.9 0-107.2-44.5-198-133.6-272.5h140.6v-76H556v71.2c104.3 48.6 156.4 136.7 156.4 264.1 0 71.8-18.4 130.9-55.2 177.3-36.8 46.4-84.6 69.7-143.5 69.7-60.6 0-109.1-23.4-145.5-70.1-36.3-46.7-54.5-104.2-54.5-172.5 0-129.2 51.9-218.7 155.6-268.5v-71.2H218.5v76z"  horiz-adv-x="1025" />

    
    <glyph glyph-name="771bianjiqi_chaifendanyuange" unicode="&#59040;" d="M576 896h384c35.34336 0 64-28.65664 64-64v-896s-28.65664-64-64-64h-384v64h384v896h-384.15872M320 448h128v-128h-128v-128L128 384l192 192v-128z m257.92 384H64v-896h514.13504l-0.85504-64H64C28.65664-128 0-99.34336 0-64v896S28.65664 896 64 896h516.16256M896 384l-192-192v128h-128v128h128v128L896 384z"  horiz-adv-x="1024" />

    
    <glyph glyph-name="ccgl-dingdanchaibing-5" unicode="&#59184;" d="M568.25 834h337.5c31.063 0 56.25-25.187 56.25-56.25v-787.5s-25.187-56.25-56.25-56.25h-337.5v56.25h337.5v787.5h-337.64M343.25 440.25h112.5v-112.5h-112.5v-112.5l-168.75 168.75 168.75 168.75v-112.5zM569.938 777.75h-451.688v-787.5h451.877l-0.752-56.25h-451.125c-31.063 0-56.25 25.187-56.25 56.25v787.5s25.187 56.25 56.25 56.25h453.659M849.5 384l-168.75-168.75v112.5h-112.5v112.5h112.5v112.5l168.75-168.75z"  horiz-adv-x="1024" />

    
    <glyph glyph-name="wenzibianjiqi-zitidaxiao" unicode="&#59104;" d="M618.397239 578.340173l-22.127974 161.629168H87.330998L64.241117 578.340173h35.596729c21.165042 115.448382 27.900443 120.258944 84.662215 120.258945h117.374244v-564.739155c0-70.231551-4.810562-75.042113-90.435708-75.042114v-30.786166h260.722046v30.786166c-86.587054 0-90.434685 4.810562-90.434685 75.042114V698.599118h117.373221c54.837956 0 62.535265-3.848655 83.700307-120.258945h35.597753z m322.56044-32.405037H570.727543L553.930995 428.35623h25.895786c15.397688 83.983763 20.296255 87.484494 61.588707 87.484494h85.382623v-410.822646c0-51.090609-3.499707-54.589292-65.787332-54.589293v-22.395056h189.663664v22.394033c-62.987566 0-65.787332 3.499707-65.787332 54.589292V515.840724h85.384669c39.892569 0 45.490054-2.799766 60.889788-87.484494h25.894764l-16.098653 117.578906z"  horiz-adv-x="1024" />

    
    <glyph glyph-name="charuhang" unicode="&#58880;" d="M1097.143-128H365.714c-40.393 0-73.143 32.75-73.143 73.143V310.85699999999997S325.321 384 365.714 384h731.429c40.393 0 73.143-32.75 73.143-73.143v-365.714s-32.75-73.143-73.143-73.143z m-512 438.857H365.714v-146.286h219.429V310.85699999999997z m0-219.428H365.714v-146.286h219.429V91.42899999999997zM804.57 310.85699999999997H658.286v-146.286H804.57V310.85699999999997z m0-219.428H658.286v-146.286H804.57V91.42899999999997z m292.572 219.428H877.714v-146.286h219.429V310.85699999999997zM877.714 91.42999999999995v-146.286h219.429V91.42899999999997H877.714z m219.429 512H365.714c-40.393 0-73.143 32.75-73.143 73.142V822.857S325.321 896 365.714 896h731.429c40.393 0 73.143-32.75 73.143-73.143v-146.286s-32.75-73.142-73.143-73.142z m-512 219.428H365.714v-146.286h219.429V822.857z m219.428 0H658.286v-146.286H804.57V822.857z m292.572 0H877.714v-146.286h219.429V822.857zM0 676.571l219.429-146.285v-73.143L0 310.85699999999997V676.571z"  horiz-adv-x="1171" />

    
    <glyph glyph-name="charuhang1" unicode="&#58881;" d="M1097.143-128H365.714c-40.393 0-73.143 32.75-73.143 73.143V310.85699999999997S325.321 384 365.714 384h731.429c40.393 0 73.143-32.75 73.143-73.143v-365.714s-32.75-73.143-73.143-73.143z m-512 438.857H365.714v-146.286h219.429V310.85699999999997z m0-219.428H365.714v-146.286h219.429V91.42899999999997zM804.57 310.85699999999997H658.286v-146.286H804.57V310.85699999999997z m0-219.428H658.286v-146.286H804.57V91.42899999999997z m292.572 219.428H877.714v-146.286h219.429V310.85699999999997zM877.714 91.42999999999995v-146.286h219.429V91.42899999999997H877.714z m219.429 512H365.714c-40.393 0-73.143 32.75-73.143 73.142V822.857S325.321 896 365.714 896h731.429c40.393 0 73.143-32.75 73.143-73.143v-146.286s-32.75-73.142-73.143-73.142z m-512 219.428H365.714v-146.286h219.429V822.857z m219.428 0H658.286v-146.286H804.57V822.857z m292.572 0H877.714v-146.286h219.429V822.857zM0 676.571l219.429-146.285v-73.143L0 310.85699999999997V676.571z"  horiz-adv-x="1171" />

    


  </font>
</defs>
</svg>
